<?xml version="1.0" encoding="utf-8"?>
<!-- Generator: Adobe Illustrator 26.3.1, SVG Export Plug-In . SVG Version: 6.00 Build 0)  -->
<svg version="1.1"
	 id="Layer_1" xmlns:rdf="http://www.w3.org/1999/02/22-rdf-syntax-ns#" xmlns:svg="http://www.w3.org/2000/svg" xmlns:inkscape="http://www.inkscape.org/namespaces/inkscape" xmlns:sodipodi="http://sodipodi.sourceforge.net/DTD/sodipodi-0.dtd" xmlns:dc="http://purl.org/dc/elements/1.1/" xmlns:cc="http://creativecommons.org/ns#" inkscape:version="0.91 r13725"
	 xmlns="http://www.w3.org/2000/svg" xmlns:xlink="http://www.w3.org/1999/xlink" x="0px" y="0px" viewBox="0 0 60 40"
	 style="enable-background:new 0 0 60 40;" xml:space="preserve">
<style type="text/css">
	.st0{fill:#00579F;}
	.st1{fill:#FAA61A;}
	.st2{fill-rule:evenodd;clip-rule:evenodd;fill:#8B3392;}
	.st3{fill-rule:evenodd;clip-rule:evenodd;fill:#FFFFFF;}
	.st4{fill:#FFFFFF;}
	.st5{fill:#D91E39;}
	.st6{fill:#E6175B;}
	.st7{fill:#951B21;}
	.st8{fill:#EC107F;}
	.st9{fill:#F05B22;}
	.st10{fill:#E91D25;}
	.st11{fill:#F59D1E;}
</style>
<sodipodi:namedview  bordercolor="#666666" borderopacity="1" gridtolerance="10" guidetolerance="10" id="namedview19" inkscape:current-layer="Layer_1" inkscape:cx="34.690897" inkscape:cy="131.15483" inkscape:pageopacity="0" inkscape:pageshadow="2" inkscape:window-height="705" inkscape:window-maximized="1" inkscape:window-width="1366" inkscape:window-x="-8" inkscape:window-y="-8" inkscape:zoom="0.35355339" objecttolerance="10" pagecolor="#ffffff" showgrid="false">
	</sodipodi:namedview>
<g id="g4158" transform="matrix(4.4299631,0,0,4.4299631,-81.165783,-105.04783)">
	<polygon id="polygon9" class="st0" points="3.7,49.7 2.6,49.7 3.3,45.6 4.3,45.6 	"/>
	<path id="path11" inkscape:connector-curvature="0" class="st0" d="M7.5,45.7c-0.2-0.1-0.5-0.2-0.9-0.2c-1,0-1.8,0.6-1.8,1.3
		c0,0.6,0.5,0.9,0.9,1.1c0.4,0.2,0.5,0.3,0.5,0.5c0,0.3-0.3,0.4-0.6,0.4c-0.4,0-0.6-0.1-1-0.2l-0.1-0.1l-0.1,0.9
		c0.2,0.1,0.7,0.2,1.2,0.2c1.1,0,1.8-0.5,1.8-1.4c0-0.5-0.3-0.8-0.9-1.1c-0.4-0.2-0.6-0.3-0.6-0.5c0-0.2,0.2-0.3,0.6-0.3
		c0.3,0,0.6,0.1,0.8,0.2l0.1,0L7.5,45.7C7.5,45.7,7.5,45.7,7.5,45.7z"/>
	<path id="path13" inkscape:connector-curvature="0" class="st0" d="M8.9,48.2C9,48,9.3,47.1,9.3,47.1c0,0,0.1-0.2,0.1-0.4l0.1,0.3
		c0,0,0.2,1,0.2,1.2C9.6,48.2,9.1,48.2,8.9,48.2L8.9,48.2z M10.2,45.6H9.4c-0.3,0-0.4,0.1-0.5,0.3l-1.6,3.7h1.1c0,0,0.2-0.5,0.2-0.6
		c0.1,0,1.2,0,1.3,0c0,0.1,0.1,0.6,0.1,0.6h1L10.2,45.6L10.2,45.6L10.2,45.6z"/>
	<path id="path15" inkscape:connector-curvature="0" class="st0" d="M1.8,45.6l-1,2.8l-0.1-0.6c-0.2-0.6-0.8-1.4-1.5-1.7l0.9,3.5
		h1.1l1.6-4.1H1.8L1.8,45.6L1.8,45.6z"/>
	<path id="path17" inkscape:connector-curvature="0" class="st1" d="M-0.2,45.6h-1.7l0,0.1c1.3,0.3,2.2,1.1,2.5,2.1L0.3,46
		C0.2,45.7,0,45.6-0.2,45.6L-0.2,45.6z"/>
</g>
<g>
	<rect x="1" y="85.9" class="st2" width="62.7" height="41.9"/>
	<polygon class="st3" points="44.7,92.7 37.3,100.1 37.8,104.3 39.2,101.4 43.4,106.9 49.3,88.6 29.6,96.8 34.9,99.6 	"/>
	<g>
		<path class="st4" d="M38.2,105.7c0,0-6.3,0-7.8,0c-6,0.9-6.6,9.6-0.1,10.8h7.9v-7.8c2.6,0.1,3.2,3.4,1.2,4.6c0.4,0.5,2,2.2,2,2.2
			C45.6,111.9,43.2,106,38.2,105.7z M35.4,113.6c0,0-4,0-4.4,0c-2.7,0.2-3.6-4.3-0.3-4.9c1,0,4.6,0,4.6,0V113.6z"/>
	</g>
	<path class="st3" d="M54.6,109.7c-1.3,0-2.9,0-2.9,0l-1.2,2.9c0,0,3.3,0,3.7,0c0.7,0,0.8,1,0,1.1c-0.9,0-6.3,0-6.3,0v-5h9.7v-2.9
		c0,0-1.4,0-1.4,0c-0.4-6.1-7.7-6.2-9.6-2.9c0.4,0.3,2.2,1.9,2.2,1.9c1.1-1.7,4.1-1.6,4.6,1H45v10.8h9.3c2.1,0,3.1-1.6,3.3-2.9
		C57.8,111.4,56.5,110,54.6,109.7z"/>
	<path class="st3" d="M26.7,105.7h-3.8c-1.2,1.5-3.3,7.4,0.8,11.9c0,0,1.8-1.5,2.2-1.8C24.6,114.6,22.5,109.5,26.7,105.7z"/>
	<path class="st3" d="M17.1,117.7c0,1.3-1.1,2.4-2.4,2.4c-1.3,0-2.4-1.1-2.4-2.4c0-1.3,1.1-2.4,2.4-2.4
		C16,115.4,17.1,116.4,17.1,117.7z"/>
	<g>
		<g>
			<path class="st3" d="M12,105.7c-6,0.9-6.6,9.6-0.1,10.8h0c0.5-1,1.5-1.7,2.7-1.7s2.2,0.7,2.7,1.7h2.5c0-0.4,0-10.8,0-10.8
				S13.5,105.7,12,105.7z M17,113.6c0,0-4,0-4.4,0c-2.7,0.2-3.6-4.3-0.3-4.9c1,0,4.6,0,4.6,0V113.6z"/>
		</g>
	</g>
	<g>
		<g>
			<g>
				<path class="st3" d="M14.8,103.2c1-0.2,1.4-2.1-0.1-2.6c-0.2,0-2.5,0-2.5,0v3.8h1v-1.2l1.2,1.2H16L14.8,103.2z M14.7,101.9
					c0,0.1-0.1,0.2-0.2,0.2h-1.2v-0.5h1.2C14.6,101.6,14.7,101.7,14.7,101.9L14.7,101.9z"/>
			</g>
		</g>
		<g>
			<g>
				<path class="st3" d="M17.8,100.6c-1.1,0-1.9,0.9-1.9,1.9c0,1.1,0.9,1.9,1.9,1.9c1.1,0,1.9-0.9,1.9-1.9
					C19.7,101.4,18.9,100.6,17.8,100.6z M17.8,103.3c-0.5,0-0.8-0.4-0.8-0.8c0-0.5,0.4-0.8,0.8-0.8c0.5,0,0.8,0.4,0.8,0.8
					C18.6,102.9,18.3,103.3,17.8,103.3z"/>
			</g>
		</g>
		<path class="st3" d="M28.6,101.6h1.7v-1.1h-1.4c-1.1,0-2.1,0.9-2.1,1.9c0,1,0.9,1.9,2.1,1.9h1.4v-1.1h-1.7c-0.3,0-0.5-0.1-0.6-0.3
			h2.3v-1H28C28.1,101.8,28.3,101.6,28.6,101.6z"/>
		<g>
			<path class="st3" d="M21.8,103.3c-0.4,0-0.8-0.4-0.8-0.8v0c0-0.4,0.4-0.8,0.8-0.8h1.6v-1.1H22c-1.1,0-2.1,0.9-2.1,1.9
				c0,1,0.9,1.9,2.1,1.9h1.5v-1.1H21.8z"/>
		</g>
		<polygon class="st3" points="34.3,100.6 30.6,100.6 30.6,101.6 31.9,101.6 31.9,104.3 32.9,104.3 32.9,101.6 34.3,101.6 		"/>
		<polygon class="st4" points="25.5,102.4 27.3,100.6 25.9,100.6 24.8,101.6 24.8,100.6 23.8,100.6 23.8,104.3 24.8,104.3 
			24.8,103.2 25.9,104.3 27.4,104.3 		"/>
	</g>
	<g>
		<path class="st4" d="M40.3,118.3c-0.2,0-0.3,0.1-0.4,0.3c-0.1,0.2-0.2,0.3-0.2,0.5c0,0.1,0,0.2,0.1,0.3c0.1,0.1,0.1,0.2,0.2,0.2
			c0,0,0.1,0,0.2-0.1l0.1,0.3c-0.1,0.1-0.2,0.1-0.3,0.1c-0.1,0-0.2,0-0.3-0.1c-0.1-0.1-0.1-0.1-0.2-0.3c0-0.1,0-0.2,0-0.3v-0.1
			c0-0.2,0.1-0.5,0.4-0.8c0.1-0.1,0.1-0.1,0.3-0.2h0.4L40.3,118.3C40.4,118.3,40.4,118.3,40.3,118.3z"/>
		<path class="st4" d="M42,118.3v1.6h-0.3v-0.2c0-0.1-0.1-0.2-0.2-0.3c-0.1-0.1-0.2-0.2-0.2-0.2c-0.1-0.1-0.2-0.1-0.3-0.1
			c-0.1,0-0.2,0-0.3,0.1c0,0,0,0,0,0c0,0,0,0.1,0.1,0.1c0,0,0.1,0.1,0.1,0.1c0,0,0.1,0,0.2-0.1l0.1,0.3c-0.1,0.1-0.3,0.1-0.3,0.1
			c-0.1,0-0.2,0-0.3-0.1c-0.1-0.1-0.1-0.1-0.2-0.2c0,0,0-0.1,0-0.2c0-0.2,0.1-0.3,0.2-0.4c0.1-0.1,0.2-0.1,0.3-0.1c0,0,0,0,0,0
			c0-0.1,0-0.1-0.1-0.2c-0.1-0.1-0.1-0.1-0.2-0.1h-0.3v-0.2h-0.1v-0.3h2v0.3H42z M41.7,118.3H41c0.2,0.1,0.3,0.3,0.3,0.5
			c0.1,0.1,0.3,0.2,0.4,0.3V118.3z"/>
		<path class="st4" d="M42.6,118.3v1.6h-0.3v-1.6h-0.2v-0.3h0.7v0.3H42.6z"/>
		<path class="st4" d="M44.1,118.3h-1.4v-0.3h1.9v0.3h-0.2v1.6h-0.3c0-0.1-0.2-0.2-0.4-0.4c-0.1-0.1-0.2-0.1-0.4-0.2
			c-0.2-0.1-0.3-0.1-0.4-0.1l-0.1-0.3c0.1-0.1,0.3-0.2,0.6-0.3C43.5,118.5,43.8,118.5,44.1,118.3z M44.1,118.7c-0.1,0-0.1,0-0.2,0.1
			c-0.1,0-0.3,0.1-0.5,0.2l-0.1,0c0.2,0.1,0.5,0.2,0.7,0.4c0,0,0.1,0,0.1,0.1V118.7z"/>
		<path class="st4" d="M45,118.3v1.6h-0.3v-1.6h-0.2v-0.3h0.7v0.3H45z"/>
		<path class="st4" d="M45.1,118.3v-0.3H46c0,0,0,0,0,0c0-0.1-0.1-0.2-0.2-0.3c0,0,0,0-0.1,0c0,0-0.1,0-0.1,0c-0.1,0-0.1,0-0.1,0
			c-0.1,0-0.1,0-0.1,0c-0.1,0-0.1,0.1-0.2,0.1l-0.1-0.2c0.1-0.1,0.3-0.2,0.5-0.2c0.1,0,0.2,0,0.2,0c0.1,0,0.2,0,0.3,0.1
			c0.2,0.1,0.3,0.3,0.3,0.5h0.2v0.3H45.1z M46.2,120.1c-0.1-0.1-0.3-0.2-0.4-0.3c-0.1,0-0.2-0.1-0.3-0.2c-0.1,0-0.2-0.1-0.2-0.1
			l0-0.4c0,0,0.1,0,0.1,0c0.1,0,0.1,0,0.1,0c0.1,0,0.3,0,0.3-0.1c0.2-0.1,0.3-0.2,0.3-0.2c0-0.1,0-0.1-0.1-0.2
			c-0.1,0-0.1-0.1-0.2-0.1c0,0,0,0-0.1,0c0,0-0.1,0-0.1,0c-0.1,0-0.1,0.1-0.1,0.1c0,0.1,0.1,0.1,0.3,0.1l-0.2,0.3
			c-0.1,0-0.1,0-0.2-0.1c-0.1-0.1-0.2-0.2-0.2-0.3c0-0.1,0.1-0.2,0.2-0.3c0.1-0.1,0.2-0.1,0.4-0.1c0.1,0,0.1,0,0.2,0
			c0,0,0.1,0,0.1,0.1c0.2,0.1,0.3,0.3,0.3,0.5c0,0.2-0.1,0.3-0.2,0.4c-0.1,0.1-0.2,0.1-0.4,0.2c0.1,0,0.1,0.1,0.2,0.1
			c0.2,0.1,0.3,0.3,0.4,0.4L46.2,120.1z"/>
		<path class="st4" d="M48.4,118.3v1.6h-0.3v-0.6c0-0.1,0-0.1-0.1-0.2c0-0.1-0.1-0.1-0.1-0.1c0,0-0.1,0-0.1,0.1
			c0,0.1-0.1,0.1-0.1,0.2h-0.3c0-0.1,0-0.2-0.1-0.2c0-0.1-0.1-0.1-0.2-0.1c0,0-0.1,0-0.1,0.1c0,0-0.1,0.1-0.1,0.1l0,0.1v0
			c0,0.2,0.1,0.2,0.3,0.2c0,0,0.1,0,0.2,0l-0.1,0.3c-0.1,0-0.1,0-0.1,0c-0.1,0-0.3-0.1-0.4-0.2c0,0-0.1-0.1-0.1-0.2
			c0-0.1,0-0.1,0-0.2c0-0.2,0.1-0.3,0.2-0.4c0.1-0.1,0.2-0.2,0.4-0.2c0.2,0,0.3,0.1,0.4,0.2c0.1-0.1,0.2-0.2,0.4-0.2
			c0.1,0,0.1,0,0.2,0.1v-0.5h-1.7v-0.3h2.2v0.3H48.4z"/>
		<path class="st4" d="M50.7,118.3h-1.4v-0.3h1.9v0.3H51v1.6h-0.3c0-0.1-0.2-0.2-0.4-0.4c-0.1-0.1-0.2-0.1-0.4-0.2
			c-0.2-0.1-0.3-0.1-0.4-0.1l-0.1-0.3c0.1-0.1,0.3-0.2,0.6-0.3C50.1,118.5,50.4,118.5,50.7,118.3z M50.7,118.7c-0.1,0-0.1,0-0.2,0.1
			c-0.1,0-0.3,0.1-0.5,0.2l-0.1,0c0.2,0.1,0.5,0.2,0.7,0.4c0,0,0.1,0,0.1,0.1V118.7z"/>
		<path class="st4" d="M51.8,118.3c-0.1,0.1-0.1,0.2-0.1,0.3c0,0,0,0.2,0.2,0.5c0.1,0.1,0.1,0.3,0.1,0.4c0,0.2-0.1,0.3-0.3,0.4
			c-0.1,0-0.2,0-0.3,0.1l0-0.3c0.2,0,0.3-0.1,0.3-0.2c0-0.1,0-0.2-0.1-0.4c-0.1-0.2-0.1-0.3-0.1-0.4c0-0.1,0-0.2,0.1-0.4h-0.3v-0.3
			H52v0.3H51.8z"/>
		<path class="st4" d="M52.4,118.3v1.6h-0.3v-1.6h-0.2v-0.3h0.7v0.3H52.4z"/>
		<path class="st4" d="M53.1,119.1c-0.1,0-0.3,0-0.3-0.1c-0.1-0.1-0.1-0.2-0.1-0.4c0-0.1,0-0.2,0.1-0.3c0.1-0.1,0.2-0.1,0.3-0.1
			c0.2,0,0.3,0.1,0.4,0.3c0,0.1,0.1,0.2,0.1,0.2c0,0.1,0,0.3-0.1,0.3C53.4,119,53.3,119.1,53.1,119.1z M53.5,120.1
			c-0.4-0.3-0.7-0.5-0.8-0.6l0-0.4c0.5,0.4,0.9,0.7,1.1,0.9v0.3L53.5,120.1z M53.2,118.4C53.2,118.4,53.1,118.4,53.2,118.4
			c-0.2,0-0.3,0.1-0.3,0.1c0,0,0,0.1,0.1,0.1c0,0,0.1,0.1,0.1,0.1l0,0c0.1,0,0.1-0.1,0.1-0.2C53.3,118.5,53.3,118.5,53.2,118.4z"/>
		<path class="st4" d="M55.7,117.9c-0.4-0.2-0.7-0.3-0.9-0.3c-0.3,0-0.5,0.1-0.6,0.3c0,0.1-0.1,0.1-0.1,0.3h0.2v0.3h-0.2v1.6h-0.3
			v-1.6h-0.2v-0.3h0.2c0-0.2,0.1-0.4,0.2-0.5c0.1-0.1,0.3-0.2,0.6-0.3c0,0,0.1,0,0.1,0h0.1c0.2,0,0.4,0,0.6,0.1
			c0.1,0,0.3,0.1,0.5,0.3L55.7,117.9z"/>
		<path class="st4" d="M55.4,118.3L55.4,118.3c0.1,0,0.3,0.1,0.4,0.1c0.2,0.1,0.3,0.3,0.3,0.4c0,0.1,0,0.2-0.1,0.3
			c-0.1,0.1-0.2,0.1-0.3,0.2c-0.1,0-0.2,0-0.3,0v-0.3c0,0,0.1,0,0.1,0c0.2,0,0.2-0.1,0.2-0.2c0-0.1-0.1-0.2-0.4-0.3v1.2h-0.3
			c0-0.1-0.1-0.2-0.1-0.2c0,0-0.1-0.1-0.1-0.2c0,0-0.1-0.1-0.1-0.1c-0.1,0-0.1-0.1-0.1-0.1c0,0,0,0-0.1,0c-0.1,0-0.2-0.1-0.3-0.1
			l-0.1-0.3c0.1,0,0.2-0.1,0.5-0.3c0,0,0.1-0.1,0.2-0.1c0,0,0.1-0.1,0.2-0.1v0h-1v-0.3h2.1v0.3H55.4z M55.1,118.7
			c-0.1,0-0.1,0.1-0.2,0.2c0,0-0.1,0-0.1,0.1c0,0-0.1,0.1-0.1,0.1c0,0,0.1,0.1,0.2,0.1c0.1,0.1,0.2,0.2,0.3,0.3V118.7z"/>
		<path class="st4" d="M56.7,119.1c-0.1,0-0.3,0-0.3-0.1c-0.1-0.1-0.1-0.2-0.1-0.4c0-0.1,0-0.2,0.1-0.3c0.1-0.1,0.2-0.1,0.3-0.1
			c0.2,0,0.3,0.1,0.4,0.3c0,0.1,0.1,0.2,0.1,0.2c0,0.1,0,0.3-0.1,0.3C57,119,56.9,119.1,56.7,119.1z M57.1,120.1
			c-0.4-0.3-0.7-0.5-0.8-0.6l0-0.4c0.5,0.4,0.9,0.7,1.1,0.9v0.3L57.1,120.1z M56.8,118.4C56.8,118.4,56.7,118.4,56.8,118.4
			c-0.2,0-0.3,0.1-0.3,0.1c0,0,0,0.1,0.1,0.1c0,0,0.1,0.1,0.1,0.1l0,0c0.1,0,0.1-0.1,0.1-0.2C56.9,118.5,56.9,118.5,56.8,118.4z"/>
	</g>
	<g>
		<polygon class="st4" points="22.5,120 23,120.2 23.3,120 22.7,119.8 		"/>
		<g>
			<path class="st4" d="M22.6,118.4v-0.3h-4.5v0.3h0.8v0.8c0,0,0.6,0,0.7,0c0,0,0.2-0.1,0.2-0.2c0,0.1,0,0.3,0,0.3
				c0,0.1-0.1,0.3-0.2,0.3c-0.1,0-0.9,0-1,0c-0.1,0-0.1,0-0.1-0.3c0-0.2,0-0.7,0-0.7h-0.3c0,0,0,0.9,0,0.9c0,0.1,0,0.3,0.3,0.3
				s1.3,0,1.3,0c0.2,0,0.3-0.2,0.4-0.4c0-0.4,0-0.9,0-0.9h-0.3c0,0.1,0,0.2-0.2,0.3c-0.1,0-0.4,0-0.4,0v-0.5h1.1v1.5h0.4v-1.5H21
				v1.5c0,0,1.2,0,1.3,0c0.1,0,0.4-0.1,0.4-0.4c0-0.3,0-0.9,0-0.9h-0.3c0,0.1,0,0.2-0.2,0.2c-0.1,0-0.8,0-0.8,0v-0.4H22.6z
				 M22.1,119.1c0.1,0,0.1-0.1,0.2-0.2c0,0.1,0,0.2,0,0.4c0,0.1-0.1,0.3-0.2,0.3c-0.1,0-0.8,0-0.8,0v-0.5
				C21.3,119.1,22.1,119.1,22.1,119.1z"/>
		</g>
		<rect x="23.1" y="118.8" class="st4" width="0.8" height="0.4"/>
		<g>
			<path class="st4" d="M24.3,118.1v0.3h1.3v0.2h-1.3c0,0,0,0.8,0,0.8c0,0.3,0.2,0.5,0.4,0.5c0.3,0,1.1,0,1.1,0v-1.5h0.3v1.5h0.3
				v-1.8H24.3z M25.5,119.7c0,0-0.7,0-0.8,0c-0.1,0-0.2-0.2-0.2-0.3c0-0.2,0-0.4,0-0.4h1V119.7z"/>
		</g>
		<path class="st4" d="M28.1,118.4h1.6v0.2c-0.1,0-0.4,0-0.5,0c0,0.1-0.3,0.2-0.3,0c-0.3,0-0.8,0-0.8,0s0,0.8,0,0.9
			c0,0.1,0,0.4,0.2,0.4c0.2,0,0.6,0,0.6,0v-0.3c0,0-0.3,0-0.4,0c-0.1,0-0.2-0.1-0.2-0.2c0-0.2,0-0.5,0-0.5h0.4v0.3h0.4V119
			c0-0.1,0.4-0.1,0.4,0c0,0.1,0,0.9,0,0.9H30v-1.5h0.2v1.5h0.3v-1.8h-2.5V118.4z"/>
		<g>
			<g>
				<path class="st4" d="M27.6,118.2c-0.1,0-0.8,0-0.8,0s0,0.4,0,0.5c0,0.2,0.1,0.3,0.4,0.4c0.3,0,0.7,0,0.7,0v-0.6
					C27.8,118.3,27.7,118.2,27.6,118.2z M27.3,118.7c-0.1,0-0.3-0.1-0.3-0.1c0-0.1,0.1-0.1,0.3-0.1c0.1,0,0.3,0.1,0.3,0.1
					C27.6,118.6,27.5,118.7,27.3,118.7z"/>
			</g>
		</g>
		<polygon class="st4" points="26.8,119.2 26.8,119.5 27.8,119.9 27.8,119.6 		"/>
		<g>
			<g>
				<path class="st4" d="M35.9,118.2c-0.1,0-0.8,0-0.8,0s0,0.4,0,0.5c0,0.2,0.1,0.3,0.4,0.4c0.3,0,0.7,0,0.7,0v-0.6
					C36.1,118.3,36,118.2,35.9,118.2z M35.6,118.7c-0.1,0-0.3-0.1-0.3-0.1c0-0.1,0.1-0.1,0.3-0.1c0.1,0,0.3,0.1,0.3,0.1
					C35.9,118.6,35.8,118.7,35.6,118.7z"/>
			</g>
		</g>
		<polygon class="st4" points="35.1,119.2 35.1,119.5 36.1,119.9 36.1,119.6 		"/>
		<path class="st4" d="M38,118.6v-0.2h0.6v-0.3h-2.2v0.3h1.3v0.2h-1.3c0,0,0,0.8,0,0.8c0,0.3,0.2,0.5,0.4,0.5c0.3,0,1.1,0,1.1,0V119
			h0.3c0.1,0,0.1,0,0.1,0.1c0,0.1,0,0.2,0,0.2c0,0.1,0,0.1-0.1,0.2c-0.1,0-0.1,0-0.1,0v0.3h0.2c0.1,0,0.2-0.1,0.2-0.2
			c0-0.2,0-0.8,0-0.8H38z M37.7,119.7c0,0-0.7,0-0.8,0c-0.1,0-0.2-0.2-0.2-0.3c0-0.2,0-0.4,0-0.4h1l0,0.1h0V119.7z"/>
		<g>
			<path class="st4" d="M31.6,118.1v0.3h1.3v0.2h-1.3c0,0,0,0.8,0,0.8c0,0.3,0.2,0.5,0.4,0.5c0.3,0,1.1,0,1.1,0v-1.5h0.4l-0.1,0.3
				v0.2c0,0,0.2,0,0.3,0c0.1,0,0.2,0.1,0.2,0.4c0,0.2,0,0.3-0.2,0.3c-0.1,0-0.3,0-0.3,0v0.3c0,0,0.2,0,0.3,0c0.1,0,0.4,0,0.5-0.3
				c0-0.7,0.1-0.9-0.4-0.9l0.1-0.2h0.5v1.5h0.3v-1.8H31.6z M32.9,119.7c0,0-0.7,0-0.8,0c-0.1,0-0.2-0.2-0.2-0.3c0-0.2,0-0.4,0-0.4h1
				V119.7z"/>
		</g>
	</g>
</g>
<g>
	<path class="st5" d="M37.2,19.2L27.4,6.7l0-0.1l12.8,1.5C39.2,11.8,38.2,15.5,37.2,19.2z"/>
	<path class="st6" d="M37.7,19.3c1-3.7,2-7.4,3.1-11.2c3.2,4.4,6.2,8.7,9.3,13c0,0,0,0.1,0,0.1L37.7,19.3z"/>
	<path class="st5" d="M37.7,19.9l11.8,1.9l0,0.1L39.3,27C38.8,24.6,38.3,22.3,37.7,19.9z"/>
	<path class="st7" d="M33.3,33.4c1.3-4.5,2.5-9,3.8-13.6c0.1,0.1,0.1,0.2,0.1,0.3c0.6,2.7,1.2,5.5,1.8,8.2c0.1,0.3,0,0.4-0.2,0.6
		c-1.8,1.4-3.5,2.8-5.2,4.3C33.5,33.3,33.5,33.4,33.3,33.4L33.3,33.4z"/>
	<path class="st5" d="M46.9,16l6.1-1.1c-0.8,2.1-1.5,4.2-2.3,6.4L46.9,16z"/>
	<path class="st6" d="M41,26.7l9.2-4.7l0.1,0.1c-0.1,0.3-0.2,0.7-0.4,1c0,0.1-0.1,0.1-0.2,0.2c-2.8,1.1-5.7,2.3-8.6,3.4
		C41.1,26.8,41,26.8,41,26.7L41,26.7z"/>
	<path class="st6" d="M56,17.5h-3.4l0.9-2.5l2.5,2.4C56,17.5,56,17.5,56,17.5z"/>
	<path class="st7" d="M32.2,13.8L27,8.9c0,0,0-0.1,0-0.1c0.4,0,0.9,0,1.3,0c0.1,0,0.1,0.1,0.2,0.1c1.2,1.6,2.4,3.1,3.7,4.7
		C32.3,13.7,32.3,13.7,32.2,13.8L32.2,13.8z"/>
	<path class="st8" d="M4,23.8c0-0.4,0-1,0-1.5v-6.8h1V19h0c0.4-0.6,1-1,1.9-1c1.4,0,2.4,1.2,2.4,2.9c0,2-1.3,3-2.5,3
		c-0.8,0-1.5-0.3-1.9-1.1h0l0,0.9H4z M5,21.5c0,0.1,0,0.2,0,0.4c0.2,0.7,0.8,1.2,1.5,1.2c1.1,0,1.7-0.9,1.7-2.2
		c0-1.1-0.6-2.1-1.7-2.1c-0.7,0-1.3,0.5-1.6,1.3c0,0.1-0.1,0.3-0.1,0.4V21.5z"/>
	<path d="M10.7,15.9h1v3.8h0c0.2-0.3,0.4-0.6,0.6-0.8l2.4-2.9H16l-2.8,3.3l3.1,4.5H15l-2.6-3.8l-0.7,0.9v3h-1V15.9z"/>
	<path d="M20.3,23.8L20.2,23h0c-0.4,0.5-1,0.9-1.7,0.8c-1.1,0-1.7-0.8-1.7-1.6c0-1.4,1.2-2.1,3.4-2.1v-0.1c0-0.5-0.1-1.3-1.3-1.3
		c-0.5,0-1,0.1-1.5,0.4l-0.2-0.7c0.5-0.3,1.1-0.5,1.8-0.5c1.7,0,2.1,1.2,2.1,2.3v2.1c0,0.5,0,0.9,0.1,1.4H20.3z M20.1,20.9
		c-1.1,0-2.4,0.2-2.4,1.3c0,0.7,0.4,1,1,1c0.6,0,1.2-0.4,1.4-0.9c0-0.1,0.1-0.2,0.1-0.3L20.1,20.9z"/>
	<path d="M22.6,22.7c0.4,0.3,0.9,0.4,1.3,0.4c0.7,0,1.1-0.4,1.1-0.8c0-0.5-0.3-0.8-1-1c-1-0.4-1.5-0.9-1.5-1.6
		c0-0.9,0.7-1.7,1.9-1.7c0.5,0,1,0.1,1.4,0.3l-0.3,0.7c-0.3-0.2-0.7-0.3-1.2-0.3c-0.6,0-0.9,0.3-0.9,0.8c0,0.5,0.3,0.7,1.1,1
		c1,0.4,1.5,0.9,1.5,1.7c0,1-0.8,1.7-2.1,1.7c-0.6,0-1.2-0.2-1.6-0.4L22.6,22.7z"/>
	<path d="M27.3,15.5h1V19h0c0.2-0.3,0.4-0.6,0.7-0.7c0.3-0.2,0.7-0.3,1-0.3c0.8,0,2,0.5,2,2.4v3.3h-1v-3.2c0-0.9-0.3-1.7-1.3-1.7
		c-0.7,0-1.2,0.5-1.4,1c-0.1,0.2-0.1,0.3-0.1,0.5v3.4h-1V15.5z"/>
</g>
<path id="XMLID_1775_" inkscape:connector-curvature="0" d="M220.4,310.5v-9c0-3.5-2.1-5.7-5.7-5.7c-1.8,0-3.8,0.6-5.1,2.6
	c-1.1-1.6-2.6-2.6-4.8-2.6c-1.5,0-3,0.5-4.2,2.1V296h-3.2v14.4h3.2v-8c0-2.6,1.4-3.8,3.5-3.8s3.2,1.4,3.2,3.8v8h3.2v-8
	c0-2.6,1.5-3.8,3.5-3.8c2.1,0,3.2,1.4,3.2,3.8v8H220.4L220.4,310.5z M267.2,296h-5.1v-4.4H259v4.4h-2.9v2.9h2.9v6.6
	c0,3.3,1.4,5.3,5,5.3c1.4,0,2.9-0.5,3.9-1.1l-0.9-2.7c-0.9,0.6-2,0.8-2.7,0.8c-1.5,0-2.1-0.9-2.1-2.4v-6.5h5.1L267.2,296L267.2,296z
	 M294,295.7c-1.8,0-3,0.9-3.8,2.1V296h-3.2v14.4h3.2v-8.1c0-2.4,1.1-3.8,3-3.8c0.6,0,1.4,0.2,2,0.3l0.9-3
	C295.5,295.7,294.6,295.7,294,295.7L294,295.7z M253.5,297.2c-1.5-1.1-3.6-1.5-5.9-1.5c-3.6,0-6,1.8-6,4.7c0,2.4,1.8,3.8,5,4.2
	l1.5,0.2c1.6,0.3,2.6,0.8,2.6,1.5c0,1.1-1.2,1.8-3.3,1.8c-2.1,0-3.8-0.8-4.8-1.5l-1.5,2.4c1.6,1.2,3.9,1.8,6.2,1.8
	c4.2,0,6.6-2,6.6-4.7c0-2.6-2-3.9-5-4.4l-1.5-0.2c-1.4-0.2-2.4-0.5-2.4-1.4c0-1.1,1.1-1.6,2.7-1.6c1.8,0,3.6,0.8,4.5,1.2
	L253.5,297.2L253.5,297.2z M337.5,295.7c-1.8,0-3,0.9-3.8,2.1V296h-3.2v14.4h3.2v-8.1c0-2.4,1.1-3.8,3-3.8c0.6,0,1.4,0.2,2,0.3
	l0.9-3C339,295.7,338.1,295.7,337.5,295.7L337.5,295.7z M297.2,303.2c0,4.4,3,7.5,7.7,7.5c2.1,0,3.6-0.5,5.1-1.6l-1.5-2.6
	c-1.2,0.9-2.4,1.4-3.8,1.4c-2.6,0-4.4-1.8-4.4-4.7c0-2.7,1.8-4.5,4.4-4.7c1.4,0,2.6,0.5,3.8,1.4l1.5-2.6c-1.5-1.2-3-1.6-5.1-1.6
	C300.2,295.7,297.2,298.9,297.2,303.2L297.2,303.2L297.2,303.2z M326.4,303.2V296h-3.2v1.8c-1.1-1.4-2.6-2.1-4.5-2.1
	c-4.1,0-7.2,3.2-7.2,7.5s3.2,7.5,7.2,7.5c2.1,0,3.6-0.8,4.5-2.1v1.8h3.2V303.2L326.4,303.2z M314.8,303.2c0-2.6,1.6-4.7,4.4-4.7
	c2.6,0,4.4,2,4.4,4.7c0,2.6-1.8,4.7-4.4,4.7C316.5,307.8,314.8,305.8,314.8,303.2L314.8,303.2z M277,295.7c-4.2,0-7.2,3-7.2,7.5
	c0,4.5,3,7.5,7.4,7.5c2.1,0,4.2-0.6,5.9-2l-1.5-2.3c-1.2,0.9-2.7,1.5-4.2,1.5c-2,0-3.9-0.9-4.4-3.5h10.7c0-0.5,0-0.8,0-1.2
	C283.8,298.7,281.1,295.7,277,295.7L277,295.7L277,295.7z M277,298.4c2,0,3.3,1.2,3.6,3.5h-7.5C273.4,299.9,274.8,298.4,277,298.4
	L277,298.4z M355.4,303.2v-12.9h-3.2v7.5c-1.1-1.4-2.6-2.1-4.5-2.1c-4.1,0-7.2,3.2-7.2,7.5c0,4.4,3.2,7.5,7.2,7.5
	c2.1,0,3.6-0.8,4.5-2.1v1.8h3.2V303.2L355.4,303.2z M343.8,303.2c0-2.6,1.6-4.7,4.4-4.7c2.6,0,4.4,2,4.4,4.7c0,2.6-1.8,4.7-4.4,4.7
	C345.5,307.8,343.8,305.8,343.8,303.2L343.8,303.2z M238.2,303.2V296H235v1.8c-1.1-1.4-2.6-2.1-4.5-2.1c-4.1,0-7.2,3.2-7.2,7.5
	s3.2,7.5,7.2,7.5c2.1,0,3.6-0.8,4.5-2.1v1.8h3.2V303.2L238.2,303.2z M226.5,303.2c0-2.6,1.6-4.7,4.4-4.7c2.6,0,4.4,2,4.4,4.7
	c0,2.6-1.8,4.7-4.4,4.7C228.1,307.8,226.5,305.8,226.5,303.2z"/>
<g>
	<rect id="rect19" x="252.5" y="186.3" class="st9" width="47.4" height="85.2"/>
	<path id="XMLID_330_" inkscape:connector-curvature="0" class="st10" d="M255.7,228.9c0-17.3,8.1-32.7,20.6-42.6
		c-9.2-7.2-20.8-11.6-33.4-11.6c-29.9,0-54.2,24.2-54.2,54.2s24.2,54.2,54.2,54.2c12.6,0,24.2-4.4,33.4-11.6
		C263.8,261.7,255.7,246.2,255.7,228.9z"/>
	<path id="path22" inkscape:connector-curvature="0" class="st11" d="M363.9,228.9c0,29.9-24.2,54.2-54.2,54.2
		c-12.6,0-24.2-4.4-33.4-11.6c12.6-9.9,20.6-25.3,20.6-42.6s-8.1-32.7-20.6-42.6c9.2-7.2,20.8-11.6,33.4-11.6
		C339.6,174.7,363.9,199.1,363.9,228.9z"/>
</g>
</svg>
