<?xml version="1.0" encoding="utf-8"?>
<!-- Generator: Adobe Illustrator 26.3.1, SVG Export Plug-In . SVG Version: 6.00 Build 0)  -->
<svg version="1.1"
	 id="Layer_1" xmlns:rdf="http://www.w3.org/1999/02/22-rdf-syntax-ns#" xmlns:svg="http://www.w3.org/2000/svg" xmlns:inkscape="http://www.inkscape.org/namespaces/inkscape" xmlns:sodipodi="http://sodipodi.sourceforge.net/DTD/sodipodi-0.dtd" xmlns:dc="http://purl.org/dc/elements/1.1/" xmlns:cc="http://creativecommons.org/ns#" inkscape:version="0.91 r13725"
	 xmlns="http://www.w3.org/2000/svg" xmlns:xlink="http://www.w3.org/1999/xlink" x="0px" y="0px" viewBox="0 0 60 40"
	 style="enable-background:new 0 0 60 40;" xml:space="preserve">
<style type="text/css">
	.st0{fill:#00579F;}
	.st1{fill:#FAA61A;}
	.st2{fill-rule:evenodd;clip-rule:evenodd;fill:#8B3392;}
	.st3{fill-rule:evenodd;clip-rule:evenodd;fill:#FFFFFF;}
	.st4{fill:#FFFFFF;}
	.st5{fill:#D91E39;}
	.st6{fill:#E6175B;}
	.st7{fill:#951B21;}
	.st8{fill:#EC107F;}
	.st9{fill:#F05B22;}
	.st10{fill:#E91D25;}
	.st11{fill:#F59D1E;}
</style>
<sodipodi:namedview  bordercolor="#666666" borderopacity="1" gridtolerance="10" guidetolerance="10" id="namedview19" inkscape:current-layer="Layer_1" inkscape:cx="34.690897" inkscape:cy="131.15483" inkscape:pageopacity="0" inkscape:pageshadow="2" inkscape:window-height="705" inkscape:window-maximized="1" inkscape:window-width="1366" inkscape:window-x="-8" inkscape:window-y="-8" inkscape:zoom="0.35355339" objecttolerance="10" pagecolor="#ffffff" showgrid="false">
	</sodipodi:namedview>
<g id="g4158" transform="matrix(4.4299631,0,0,4.4299631,-81.165783,-105.04783)">
	<polygon id="polygon9" class="st0" points="3.7,49.7 2.6,49.7 3.3,45.6 4.3,45.6 	"/>
	<path id="path11" inkscape:connector-curvature="0" class="st0" d="M7.5,45.7c-0.2-0.1-0.5-0.2-0.9-0.2c-1,0-1.8,0.6-1.8,1.3
		c0,0.6,0.5,0.9,0.9,1.1c0.4,0.2,0.5,0.3,0.5,0.5c0,0.3-0.3,0.4-0.6,0.4c-0.4,0-0.6-0.1-1-0.2l-0.1-0.1l-0.1,0.9
		c0.2,0.1,0.7,0.2,1.2,0.2c1.1,0,1.8-0.5,1.8-1.4c0-0.5-0.3-0.8-0.9-1.1c-0.4-0.2-0.6-0.3-0.6-0.5c0-0.2,0.2-0.3,0.6-0.3
		c0.3,0,0.6,0.1,0.8,0.2l0.1,0L7.5,45.7C7.5,45.7,7.5,45.7,7.5,45.7z"/>
	<path id="path13" inkscape:connector-curvature="0" class="st0" d="M8.9,48.2C9,48,9.3,47.1,9.3,47.1c0,0,0.1-0.2,0.1-0.4l0.1,0.3
		c0,0,0.2,1,0.2,1.2C9.6,48.2,9.1,48.2,8.9,48.2L8.9,48.2z M10.2,45.6H9.4c-0.3,0-0.4,0.1-0.5,0.3l-1.6,3.7h1.1c0,0,0.2-0.5,0.2-0.6
		c0.1,0,1.2,0,1.3,0c0,0.1,0.1,0.6,0.1,0.6h1L10.2,45.6L10.2,45.6L10.2,45.6z"/>
	<path id="path15" inkscape:connector-curvature="0" class="st0" d="M1.8,45.6l-1,2.8l-0.1-0.6c-0.2-0.6-0.8-1.4-1.5-1.7l0.9,3.5
		h1.1l1.6-4.1H1.8L1.8,45.6L1.8,45.6z"/>
	<path id="path17" inkscape:connector-curvature="0" class="st1" d="M-0.2,45.6h-1.7l0,0.1c1.3,0.3,2.2,1.1,2.5,2.1L0.3,46
		C0.2,45.7,0,45.6-0.2,45.6L-0.2,45.6z"/>
</g>
<g>
	<rect x="1" y="85.9" class="st2" width="62.7" height="41.9"/>
	<polygon class="st3" points="44.7,92.7 37.3,100.1 37.8,104.3 39.2,101.4 43.4,106.9 49.3,88.6 29.6,96.8 34.9,99.6 	"/>
	<g>
		<path class="st4" d="M38.2,105.7c0,0-6.3,0-7.8,0c-6,0.9-6.6,9.6-0.1,10.8h7.9v-7.8c2.6,0.1,3.2,3.4,1.2,4.6c0.4,0.5,2,2.2,2,2.2
			C45.6,111.9,43.2,106,38.2,105.7z M35.4,113.6c0,0-4,0-4.4,0c-2.7,0.2-3.6-4.3-0.3-4.9c1,0,4.6,0,4.6,0V113.6z"/>
	</g>
	<path class="st3" d="M54.6,109.7c-1.3,0-2.9,0-2.9,0l-1.2,2.9c0,0,3.3,0,3.7,0c0.7,0,0.8,1,0,1.1c-0.9,0-6.3,0-6.3,0v-5h9.7v-2.9
		c0,0-1.4,0-1.4,0c-0.4-6.1-7.7-6.2-9.6-2.9c0.4,0.3,2.2,1.9,2.2,1.9c1.1-1.7,4.1-1.6,4.6,1H45v10.8h9.3c2.1,0,3.1-1.6,3.3-2.9
		C57.8,111.4,56.5,110,54.6,109.7z"/>
	<path class="st3" d="M26.7,105.7h-3.8c-1.2,1.5-3.3,7.4,0.8,11.9c0,0,1.8-1.5,2.2-1.8C24.6,114.6,22.5,109.5,26.7,105.7z"/>
	<path class="st3" d="M17.1,117.7c0,1.3-1.1,2.4-2.4,2.4c-1.3,0-2.4-1.1-2.4-2.4c0-1.3,1.1-2.4,2.4-2.4
		C16,115.4,17.1,116.4,17.1,117.7z"/>
	<g>
		<g>
			<path class="st3" d="M12,105.7c-6,0.9-6.6,9.6-0.1,10.8h0c0.5-1,1.5-1.7,2.7-1.7s2.2,0.7,2.7,1.7h2.5c0-0.4,0-10.8,0-10.8
				S13.5,105.7,12,105.7z M17,113.6c0,0-4,0-4.4,0c-2.7,0.2-3.6-4.3-0.3-4.9c1,0,4.6,0,4.6,0V113.6z"/>
		</g>
	</g>
	<g>
		<g>
			<g>
				<path class="st3" d="M14.8,103.2c1-0.2,1.4-2.1-0.1-2.6c-0.2,0-2.5,0-2.5,0v3.8h1v-1.2l1.2,1.2H16L14.8,103.2z M14.7,101.9
					c0,0.1-0.1,0.2-0.2,0.2h-1.2v-0.5h1.2C14.6,101.6,14.7,101.7,14.7,101.9L14.7,101.9z"/>
			</g>
		</g>
		<g>
			<g>
				<path class="st3" d="M17.8,100.6c-1.1,0-1.9,0.9-1.9,1.9c0,1.1,0.9,1.9,1.9,1.9c1.1,0,1.9-0.9,1.9-1.9
					C19.7,101.4,18.9,100.6,17.8,100.6z M17.8,103.3c-0.5,0-0.8-0.4-0.8-0.8c0-0.5,0.4-0.8,0.8-0.8c0.5,0,0.8,0.4,0.8,0.8
					C18.6,102.9,18.3,103.3,17.8,103.3z"/>
			</g>
		</g>
		<path class="st3" d="M28.6,101.6h1.7v-1.1h-1.4c-1.1,0-2.1,0.9-2.1,1.9c0,1,0.9,1.9,2.1,1.9h1.4v-1.1h-1.7c-0.3,0-0.5-0.1-0.6-0.3
			h2.3v-1H28C28.1,101.8,28.3,101.6,28.6,101.6z"/>
		<g>
			<path class="st3" d="M21.8,103.3c-0.4,0-0.8-0.4-0.8-0.8v0c0-0.4,0.4-0.8,0.8-0.8h1.6v-1.1H22c-1.1,0-2.1,0.9-2.1,1.9
				c0,1,0.9,1.9,2.1,1.9h1.5v-1.1H21.8z"/>
		</g>
		<polygon class="st3" points="34.3,100.6 30.6,100.6 30.6,101.6 31.9,101.6 31.9,104.3 32.9,104.3 32.9,101.6 34.3,101.6 		"/>
		<polygon class="st4" points="25.5,102.4 27.3,100.6 25.9,100.6 24.8,101.6 24.8,100.6 23.8,100.6 23.8,104.3 24.8,104.3 
			24.8,103.2 25.9,104.3 27.4,104.3 		"/>
	</g>
	<g>
		<path class="st4" d="M40.3,118.3c-0.2,0-0.3,0.1-0.4,0.3c-0.1,0.2-0.2,0.3-0.2,0.5c0,0.1,0,0.2,0.1,0.3c0.1,0.1,0.1,0.2,0.2,0.2
			c0,0,0.1,0,0.2-0.1l0.1,0.3c-0.1,0.1-0.2,0.1-0.3,0.1c-0.1,0-0.2,0-0.3-0.1c-0.1-0.1-0.1-0.1-0.2-0.3c0-0.1,0-0.2,0-0.3v-0.1
			c0-0.2,0.1-0.5,0.4-0.8c0.1-0.1,0.1-0.1,0.3-0.2h0.4L40.3,118.3C40.4,118.3,40.4,118.3,40.3,118.3z"/>
		<path class="st4" d="M42,118.3v1.6h-0.3v-0.2c0-0.1-0.1-0.2-0.2-0.3c-0.1-0.1-0.2-0.2-0.2-0.2c-0.1-0.1-0.2-0.1-0.3-0.1
			c-0.1,0-0.2,0-0.3,0.1c0,0,0,0,0,0c0,0,0,0.1,0.1,0.1c0,0,0.1,0.1,0.1,0.1c0,0,0.1,0,0.2-0.1l0.1,0.3c-0.1,0.1-0.3,0.1-0.3,0.1
			c-0.1,0-0.2,0-0.3-0.1c-0.1-0.1-0.1-0.1-0.2-0.2c0,0,0-0.1,0-0.2c0-0.2,0.1-0.3,0.2-0.4c0.1-0.1,0.2-0.1,0.3-0.1c0,0,0,0,0,0
			c0-0.1,0-0.1-0.1-0.2c-0.1-0.1-0.1-0.1-0.2-0.1h-0.3v-0.2h-0.1v-0.3h2v0.3H42z M41.7,118.3H41c0.2,0.1,0.3,0.3,0.3,0.5
			c0.1,0.1,0.3,0.2,0.4,0.3V118.3z"/>
		<path class="st4" d="M42.6,118.3v1.6h-0.3v-1.6h-0.2v-0.3h0.7v0.3H42.6z"/>
		<path class="st4" d="M44.1,118.3h-1.4v-0.3h1.9v0.3h-0.2v1.6h-0.3c0-0.1-0.2-0.2-0.4-0.4c-0.1-0.1-0.2-0.1-0.4-0.2
			c-0.2-0.1-0.3-0.1-0.4-0.1l-0.1-0.3c0.1-0.1,0.3-0.2,0.6-0.3C43.5,118.5,43.8,118.5,44.1,118.3z M44.1,118.7c-0.1,0-0.1,0-0.2,0.1
			c-0.1,0-0.3,0.1-0.5,0.2l-0.1,0c0.2,0.1,0.5,0.2,0.7,0.4c0,0,0.1,0,0.1,0.1V118.7z"/>
		<path class="st4" d="M45,118.3v1.6h-0.3v-1.6h-0.2v-0.3h0.7v0.3H45z"/>
		<path class="st4" d="M45.1,118.3v-0.3H46c0,0,0,0,0,0c0-0.1-0.1-0.2-0.2-0.3c0,0,0,0-0.1,0c0,0-0.1,0-0.1,0c-0.1,0-0.1,0-0.1,0
			c-0.1,0-0.1,0-0.1,0c-0.1,0-0.1,0.1-0.2,0.1l-0.1-0.2c0.1-0.1,0.3-0.2,0.5-0.2c0.1,0,0.2,0,0.2,0c0.1,0,0.2,0,0.3,0.1
			c0.2,0.1,0.3,0.3,0.3,0.5h0.2v0.3H45.1z M46.2,120.1c-0.1-0.1-0.3-0.2-0.4-0.3c-0.1,0-0.2-0.1-0.3-0.2c-0.1,0-0.2-0.1-0.2-0.1
			l0-0.4c0,0,0.1,0,0.1,0c0.1,0,0.1,0,0.1,0c0.1,0,0.3,0,0.3-0.1c0.2-0.1,0.3-0.2,0.3-0.2c0-0.1,0-0.1-0.1-0.2
			c-0.1,0-0.1-0.1-0.2-0.1c0,0,0,0-0.1,0c0,0-0.1,0-0.1,0c-0.1,0-0.1,0.1-0.1,0.1c0,0.1,0.1,0.1,0.3,0.1l-0.2,0.3
			c-0.1,0-0.1,0-0.2-0.1c-0.1-0.1-0.2-0.2-0.2-0.3c0-0.1,0.1-0.2,0.2-0.3c0.1-0.1,0.2-0.1,0.4-0.1c0.1,0,0.1,0,0.2,0
			c0,0,0.1,0,0.1,0.1c0.2,0.1,0.3,0.3,0.3,0.5c0,0.2-0.1,0.3-0.2,0.4c-0.1,0.1-0.2,0.1-0.4,0.2c0.1,0,0.1,0.1,0.2,0.1
			c0.2,0.1,0.3,0.3,0.4,0.4L46.2,120.1z"/>
		<path class="st4" d="M48.4,118.3v1.6h-0.3v-0.6c0-0.1,0-0.1-0.1-0.2c0-0.1-0.1-0.1-0.1-0.1c0,0-0.1,0-0.1,0.1
			c0,0.1-0.1,0.1-0.1,0.2h-0.3c0-0.1,0-0.2-0.1-0.2c0-0.1-0.1-0.1-0.2-0.1c0,0-0.1,0-0.1,0.1c0,0-0.1,0.1-0.1,0.1l0,0.1v0
			c0,0.2,0.1,0.2,0.3,0.2c0,0,0.1,0,0.2,0l-0.1,0.3c-0.1,0-0.1,0-0.1,0c-0.1,0-0.3-0.1-0.4-0.2c0,0-0.1-0.1-0.1-0.2
			c0-0.1,0-0.1,0-0.2c0-0.2,0.1-0.3,0.2-0.4c0.1-0.1,0.2-0.2,0.4-0.2c0.2,0,0.3,0.1,0.4,0.2c0.1-0.1,0.2-0.2,0.4-0.2
			c0.1,0,0.1,0,0.2,0.1v-0.5h-1.7v-0.3h2.2v0.3H48.4z"/>
		<path class="st4" d="M50.7,118.3h-1.4v-0.3h1.9v0.3H51v1.6h-0.3c0-0.1-0.2-0.2-0.4-0.4c-0.1-0.1-0.2-0.1-0.4-0.2
			c-0.2-0.1-0.3-0.1-0.4-0.1l-0.1-0.3c0.1-0.1,0.3-0.2,0.6-0.3C50.1,118.5,50.4,118.5,50.7,118.3z M50.7,118.7c-0.1,0-0.1,0-0.2,0.1
			c-0.1,0-0.3,0.1-0.5,0.2l-0.1,0c0.2,0.1,0.5,0.2,0.7,0.4c0,0,0.1,0,0.1,0.1V118.7z"/>
		<path class="st4" d="M51.8,118.3c-0.1,0.1-0.1,0.2-0.1,0.3c0,0,0,0.2,0.2,0.5c0.1,0.1,0.1,0.3,0.1,0.4c0,0.2-0.1,0.3-0.3,0.4
			c-0.1,0-0.2,0-0.3,0.1l0-0.3c0.2,0,0.3-0.1,0.3-0.2c0-0.1,0-0.2-0.1-0.4c-0.1-0.2-0.1-0.3-0.1-0.4c0-0.1,0-0.2,0.1-0.4h-0.3v-0.3
			H52v0.3H51.8z"/>
		<path class="st4" d="M52.4,118.3v1.6h-0.3v-1.6h-0.2v-0.3h0.7v0.3H52.4z"/>
		<path class="st4" d="M53.1,119.1c-0.1,0-0.3,0-0.3-0.1c-0.1-0.1-0.1-0.2-0.1-0.4c0-0.1,0-0.2,0.1-0.3c0.1-0.1,0.2-0.1,0.3-0.1
			c0.2,0,0.3,0.1,0.4,0.3c0,0.1,0.1,0.2,0.1,0.2c0,0.1,0,0.3-0.1,0.3C53.4,119,53.3,119.1,53.1,119.1z M53.5,120.1
			c-0.4-0.3-0.7-0.5-0.8-0.6l0-0.4c0.5,0.4,0.9,0.7,1.1,0.9v0.3L53.5,120.1z M53.2,118.4C53.2,118.4,53.1,118.4,53.2,118.4
			c-0.2,0-0.3,0.1-0.3,0.1c0,0,0,0.1,0.1,0.1c0,0,0.1,0.1,0.1,0.1l0,0c0.1,0,0.1-0.1,0.1-0.2C53.3,118.5,53.3,118.5,53.2,118.4z"/>
		<path class="st4" d="M55.7,117.9c-0.4-0.2-0.7-0.3-0.9-0.3c-0.3,0-0.5,0.1-0.6,0.3c0,0.1-0.1,0.1-0.1,0.3h0.2v0.3h-0.2v1.6h-0.3
			v-1.6h-0.2v-0.3h0.2c0-0.2,0.1-0.4,0.2-0.5c0.1-0.1,0.3-0.2,0.6-0.3c0,0,0.1,0,0.1,0h0.1c0.2,0,0.4,0,0.6,0.1
			c0.1,0,0.3,0.1,0.5,0.3L55.7,117.9z"/>
		<path class="st4" d="M55.4,118.3L55.4,118.3c0.1,0,0.3,0.1,0.4,0.1c0.2,0.1,0.3,0.3,0.3,0.4c0,0.1,0,0.2-0.1,0.3
			c-0.1,0.1-0.2,0.1-0.3,0.2c-0.1,0-0.2,0-0.3,0v-0.3c0,0,0.1,0,0.1,0c0.2,0,0.2-0.1,0.2-0.2c0-0.1-0.1-0.2-0.4-0.3v1.2h-0.3
			c0-0.1-0.1-0.2-0.1-0.2c0,0-0.1-0.1-0.1-0.2c0,0-0.1-0.1-0.1-0.1c-0.1,0-0.1-0.1-0.1-0.1c0,0,0,0-0.1,0c-0.1,0-0.2-0.1-0.3-0.1
			l-0.1-0.3c0.1,0,0.2-0.1,0.5-0.3c0,0,0.1-0.1,0.2-0.1c0,0,0.1-0.1,0.2-0.1v0h-1v-0.3h2.1v0.3H55.4z M55.1,118.7
			c-0.1,0-0.1,0.1-0.2,0.2c0,0-0.1,0-0.1,0.1c0,0-0.1,0.1-0.1,0.1c0,0,0.1,0.1,0.2,0.1c0.1,0.1,0.2,0.2,0.3,0.3V118.7z"/>
		<path class="st4" d="M56.7,119.1c-0.1,0-0.3,0-0.3-0.1c-0.1-0.1-0.1-0.2-0.1-0.4c0-0.1,0-0.2,0.1-0.3c0.1-0.1,0.2-0.1,0.3-0.1
			c0.2,0,0.3,0.1,0.4,0.3c0,0.1,0.1,0.2,0.1,0.2c0,0.1,0,0.3-0.1,0.3C57,119,56.9,119.1,56.7,119.1z M57.1,120.1
			c-0.4-0.3-0.7-0.5-0.8-0.6l0-0.4c0.5,0.4,0.9,0.7,1.1,0.9v0.3L57.1,120.1z M56.8,118.4C56.8,118.4,56.7,118.4,56.8,118.4
			c-0.2,0-0.3,0.1-0.3,0.1c0,0,0,0.1,0.1,0.1c0,0,0.1,0.1,0.1,0.1l0,0c0.1,0,0.1-0.1,0.1-0.2C56.9,118.5,56.9,118.5,56.8,118.4z"/>
	</g>
	<g>
		<polygon class="st4" points="22.5,120 23,120.2 23.3,120 22.7,119.8 		"/>
		<g>
			<path class="st4" d="M22.6,118.4v-0.3h-4.5v0.3h0.8v0.8c0,0,0.6,0,0.7,0c0,0,0.2-0.1,0.2-0.2c0,0.1,0,0.3,0,0.3
				c0,0.1-0.1,0.3-0.2,0.3c-0.1,0-0.9,0-1,0c-0.1,0-0.1,0-0.1-0.3c0-0.2,0-0.7,0-0.7h-0.3c0,0,0,0.9,0,0.9c0,0.1,0,0.3,0.3,0.3
				s1.3,0,1.3,0c0.2,0,0.3-0.2,0.4-0.4c0-0.4,0-0.9,0-0.9h-0.3c0,0.1,0,0.2-0.2,0.3c-0.1,0-0.4,0-0.4,0v-0.5h1.1v1.5h0.4v-1.5H21
				v1.5c0,0,1.2,0,1.3,0c0.1,0,0.4-0.1,0.4-0.4c0-0.3,0-0.9,0-0.9h-0.3c0,0.1,0,0.2-0.2,0.2c-0.1,0-0.8,0-0.8,0v-0.4H22.6z
				 M22.1,119.1c0.1,0,0.1-0.1,0.2-0.2c0,0.1,0,0.2,0,0.4c0,0.1-0.1,0.3-0.2,0.3c-0.1,0-0.8,0-0.8,0v-0.5
				C21.3,119.1,22.1,119.1,22.1,119.1z"/>
		</g>
		<rect x="23.1" y="118.8" class="st4" width="0.8" height="0.4"/>
		<g>
			<path class="st4" d="M24.3,118.1v0.3h1.3v0.2h-1.3c0,0,0,0.8,0,0.8c0,0.3,0.2,0.5,0.4,0.5c0.3,0,1.1,0,1.1,0v-1.5h0.3v1.5h0.3
				v-1.8H24.3z M25.5,119.7c0,0-0.7,0-0.8,0c-0.1,0-0.2-0.2-0.2-0.3c0-0.2,0-0.4,0-0.4h1V119.7z"/>
		</g>
		<path class="st4" d="M28.1,118.4h1.6v0.2c-0.1,0-0.4,0-0.5,0c0,0.1-0.3,0.2-0.3,0c-0.3,0-0.8,0-0.8,0s0,0.8,0,0.9
			c0,0.1,0,0.4,0.2,0.4c0.2,0,0.6,0,0.6,0v-0.3c0,0-0.3,0-0.4,0c-0.1,0-0.2-0.1-0.2-0.2c0-0.2,0-0.5,0-0.5h0.4v0.3h0.4V119
			c0-0.1,0.4-0.1,0.4,0c0,0.1,0,0.9,0,0.9H30v-1.5h0.2v1.5h0.3v-1.8h-2.5V118.4z"/>
		<g>
			<g>
				<path class="st4" d="M27.6,118.2c-0.1,0-0.8,0-0.8,0s0,0.4,0,0.5c0,0.2,0.1,0.3,0.4,0.4c0.3,0,0.7,0,0.7,0v-0.6
					C27.8,118.3,27.7,118.2,27.6,118.2z M27.3,118.7c-0.1,0-0.3-0.1-0.3-0.1c0-0.1,0.1-0.1,0.3-0.1c0.1,0,0.3,0.1,0.3,0.1
					C27.6,118.6,27.5,118.7,27.3,118.7z"/>
			</g>
		</g>
		<polygon class="st4" points="26.8,119.2 26.8,119.5 27.8,119.9 27.8,119.6 		"/>
		<g>
			<g>
				<path class="st4" d="M35.9,118.2c-0.1,0-0.8,0-0.8,0s0,0.4,0,0.5c0,0.2,0.1,0.3,0.4,0.4c0.3,0,0.7,0,0.7,0v-0.6
					C36.1,118.3,36,118.2,35.9,118.2z M35.6,118.7c-0.1,0-0.3-0.1-0.3-0.1c0-0.1,0.1-0.1,0.3-0.1c0.1,0,0.3,0.1,0.3,0.1
					C35.9,118.6,35.8,118.7,35.6,118.7z"/>
			</g>
		</g>
		<polygon class="st4" points="35.1,119.2 35.1,119.5 36.1,119.9 36.1,119.6 		"/>
		<path class="st4" d="M38,118.6v-0.2h0.6v-0.3h-2.2v0.3h1.3v0.2h-1.3c0,0,0,0.8,0,0.8c0,0.3,0.2,0.5,0.4,0.5c0.3,0,1.1,0,1.1,0V119
			h0.3c0.1,0,0.1,0,0.1,0.1c0,0.1,0,0.2,0,0.2c0,0.1,0,0.1-0.1,0.2c-0.1,0-0.1,0-0.1,0v0.3h0.2c0.1,0,0.2-0.1,0.2-0.2
			c0-0.2,0-0.8,0-0.8H38z M37.7,119.7c0,0-0.7,0-0.8,0c-0.1,0-0.2-0.2-0.2-0.3c0-0.2,0-0.4,0-0.4h1l0,0.1h0V119.7z"/>
		<g>
			<path class="st4" d="M31.6,118.1v0.3h1.3v0.2h-1.3c0,0,0,0.8,0,0.8c0,0.3,0.2,0.5,0.4,0.5c0.3,0,1.1,0,1.1,0v-1.5h0.4l-0.1,0.3
				v0.2c0,0,0.2,0,0.3,0c0.1,0,0.2,0.1,0.2,0.4c0,0.2,0,0.3-0.2,0.3c-0.1,0-0.3,0-0.3,0v0.3c0,0,0.2,0,0.3,0c0.1,0,0.4,0,0.5-0.3
				c0-0.7,0.1-0.9-0.4-0.9l0.1-0.2h0.5v1.5h0.3v-1.8H31.6z M32.9,119.7c0,0-0.7,0-0.8,0c-0.1,0-0.2-0.2-0.2-0.3c0-0.2,0-0.4,0-0.4h1
				V119.7z"/>
		</g>
	</g>
</g>
<g>
	<path class="st5" d="M161.9,85.1l-9.8-12.6l0-0.1l12.8,1.5C163.9,77.7,162.9,81.3,161.9,85.1z"/>
	<path class="st6" d="M162.4,85.2c1-3.7,2-7.4,3.1-11.2c3.2,4.4,6.2,8.7,9.3,13c0,0,0,0.1,0,0.1L162.4,85.2z"/>
	<path class="st5" d="M162.4,85.7l11.8,1.9l0,0.1l-10.2,5.1C163.5,90.5,163,88.2,162.4,85.7z"/>
	<path class="st7" d="M158,99.3c1.3-4.5,2.5-9,3.8-13.6c0.1,0.1,0.1,0.2,0.1,0.3c0.6,2.7,1.2,5.5,1.8,8.2c0.1,0.3,0,0.4-0.2,0.6
		c-1.8,1.4-3.5,2.8-5.2,4.3C158.3,99.2,158.2,99.2,158,99.3L158,99.3z"/>
	<path class="st5" d="M171.6,81.8l6.1-1.1c-0.8,2.1-1.5,4.2-2.3,6.4L171.6,81.8z"/>
	<path class="st6" d="M165.7,92.6l9.2-4.7l0.1,0.1c-0.1,0.3-0.2,0.7-0.4,1c0,0.1-0.1,0.1-0.2,0.2c-2.8,1.1-5.7,2.3-8.6,3.4
		C165.8,92.7,165.7,92.7,165.7,92.6L165.7,92.6z"/>
	<path class="st6" d="M180.7,83.4h-3.4l0.9-2.5l2.5,2.4C180.7,83.3,180.7,83.4,180.7,83.4z"/>
	<path class="st7" d="M156.9,79.7l-5.2-4.9c0,0,0-0.1,0-0.1c0.4,0,0.9,0,1.3,0c0.1,0,0.1,0.1,0.2,0.1c1.2,1.6,2.4,3.1,3.7,4.7
		C157,79.5,157,79.6,156.9,79.7L156.9,79.7z"/>
	<path class="st8" d="M128.7,89.6c0-0.4,0-1,0-1.5v-6.8h1v3.5h0c0.4-0.6,1-1,1.9-1c1.4,0,2.4,1.2,2.4,2.9c0,2-1.3,3-2.5,3
		c-0.8,0-1.5-0.3-1.9-1.1h0l0,0.9H128.7z M129.8,87.4c0,0.1,0,0.2,0,0.4c0.2,0.7,0.8,1.2,1.5,1.2c1.1,0,1.7-0.9,1.7-2.2
		c0-1.1-0.6-2.1-1.7-2.1c-0.7,0-1.3,0.5-1.6,1.3c0,0.1-0.1,0.3-0.1,0.4V87.4z"/>
	<path d="M135.4,81.8h1v3.8h0c0.2-0.3,0.4-0.6,0.6-0.8l2.4-2.9h1.3l-2.8,3.3l3.1,4.5h-1.2l-2.6-3.8l-0.7,0.9v3h-1V81.8z"/>
	<path d="M145,89.6l-0.1-0.7h0c-0.4,0.5-1,0.9-1.7,0.8c-1.1,0-1.7-0.8-1.7-1.6c0-1.4,1.2-2.1,3.4-2.1v-0.1c0-0.5-0.1-1.3-1.3-1.3
		c-0.5,0-1,0.1-1.5,0.4l-0.2-0.7c0.5-0.3,1.1-0.5,1.8-0.5c1.7,0,2.1,1.2,2.1,2.3v2.1c0,0.5,0,0.9,0.1,1.4H145z M144.8,86.8
		c-1.1,0-2.4,0.2-2.4,1.3c0,0.7,0.4,1,1,1c0.6,0,1.2-0.4,1.4-0.9c0-0.1,0.1-0.2,0.1-0.3V86.8z"/>
	<path d="M147.3,88.6c0.4,0.3,0.9,0.4,1.3,0.4c0.7,0,1.1-0.4,1.1-0.8c0-0.5-0.3-0.8-1-1c-1-0.4-1.5-0.9-1.5-1.6
		c0-0.9,0.7-1.7,1.9-1.7c0.5,0,1,0.1,1.4,0.3l-0.3,0.7c-0.3-0.2-0.7-0.3-1.2-0.3c-0.6,0-0.9,0.3-0.9,0.8c0,0.5,0.3,0.7,1.1,1
		c1,0.4,1.5,0.9,1.5,1.7c0,1-0.8,1.7-2.1,1.7c-0.6,0-1.2-0.2-1.6-0.4L147.3,88.6z"/>
	<path d="M152,81.4h1v3.5h0c0.2-0.3,0.4-0.6,0.7-0.7c0.3-0.2,0.7-0.3,1-0.3c0.8,0,2,0.5,2,2.4v3.3h-1v-3.2c0-0.9-0.3-1.7-1.3-1.7
		c-0.7,0-1.2,0.5-1.4,1c-0.1,0.2-0.1,0.3-0.1,0.5v3.4h-1V81.4z"/>
</g>
<g>
	<path id="XMLID_1775_" inkscape:connector-curvature="0" d="M16,37v-2.3c0-0.9-0.5-1.4-1.4-1.4c-0.5,0-0.9,0.1-1.3,0.6
		c-0.3-0.4-0.6-0.6-1.2-0.6c-0.4,0-0.8,0.1-1.1,0.5v-0.5h-0.8V37H11v-2c0-0.6,0.3-0.9,0.9-0.9s0.8,0.3,0.8,0.9v2h0.8v-2
		c0-0.6,0.4-0.9,0.9-0.9c0.5,0,0.8,0.3,0.8,0.9v2L16,37L16,37z M27.7,33.4h-1.3v-1.1h-0.8v1.1h-0.7v0.7h0.7v1.7
		c0,0.8,0.3,1.3,1.2,1.3c0.3,0,0.7-0.1,1-0.3l-0.2-0.7c-0.2,0.1-0.5,0.2-0.7,0.2c-0.4,0-0.5-0.2-0.5-0.6v-1.6h1.3L27.7,33.4
		L27.7,33.4z M34.5,33.3c-0.5,0-0.8,0.2-0.9,0.5v-0.5h-0.8V37h0.8v-2c0-0.6,0.3-0.9,0.8-0.9c0.1,0,0.3,0,0.5,0.1l0.2-0.8
		C34.8,33.3,34.6,33.3,34.5,33.3L34.5,33.3z M24.3,33.7c-0.4-0.3-0.9-0.4-1.5-0.4c-0.9,0-1.5,0.5-1.5,1.2c0,0.6,0.5,0.9,1.2,1.1
		l0.4,0c0.4,0.1,0.6,0.2,0.6,0.4c0,0.3-0.3,0.5-0.8,0.5c-0.5,0-0.9-0.2-1.2-0.4l-0.4,0.6c0.4,0.3,1,0.5,1.5,0.5
		c1.1,0,1.7-0.5,1.7-1.2c0-0.6-0.5-1-1.2-1.1l-0.4,0c-0.3,0-0.6-0.1-0.6-0.3c0-0.3,0.3-0.4,0.7-0.4c0.5,0,0.9,0.2,1.1,0.3L24.3,33.7
		L24.3,33.7z M45.4,33.3c-0.5,0-0.8,0.2-0.9,0.5v-0.5h-0.8V37h0.8v-2c0-0.6,0.3-0.9,0.8-0.9c0.1,0,0.3,0,0.5,0.1l0.2-0.7
		C45.7,33.3,45.5,33.3,45.4,33.3L45.4,33.3z M35.2,35.2c0,1.1,0.8,1.9,1.9,1.9c0.5,0,0.9-0.1,1.3-0.4L38.1,36
		c-0.3,0.2-0.6,0.3-0.9,0.3c-0.6,0-1.1-0.5-1.1-1.2c0-0.7,0.5-1.1,1.1-1.2c0.3,0,0.6,0.1,0.9,0.3l0.4-0.6c-0.4-0.3-0.8-0.4-1.3-0.4
		C36,33.3,35.2,34.1,35.2,35.2L35.2,35.2L35.2,35.2z M42.6,35.2v-1.8h-0.8v0.5c-0.3-0.3-0.6-0.5-1.1-0.5c-1,0-1.8,0.8-1.8,1.9
		c0,1.1,0.8,1.9,1.8,1.9c0.5,0,0.9-0.2,1.1-0.5V37h0.8V35.2L42.6,35.2z M39.7,35.2c0-0.6,0.4-1.2,1.1-1.2c0.6,0,1.1,0.5,1.1,1.2
		c0,0.6-0.5,1.2-1.1,1.2C40.1,36.3,39.7,35.8,39.7,35.2L39.7,35.2z M30.2,33.3c-1.1,0-1.8,0.8-1.8,1.9c0,1.1,0.8,1.9,1.9,1.9
		c0.5,0,1.1-0.1,1.5-0.5L31.3,36c-0.3,0.2-0.7,0.4-1.1,0.4c-0.5,0-1-0.2-1.1-0.9h2.7c0-0.1,0-0.2,0-0.3C31.9,34,31.2,33.3,30.2,33.3
		L30.2,33.3L30.2,33.3z M30.2,34c0.5,0,0.8,0.3,0.9,0.9h-1.9C29.3,34.3,29.6,34,30.2,34L30.2,34z M49.8,35.2v-3.2h-0.8v1.9
		c-0.3-0.3-0.6-0.5-1.1-0.5c-1,0-1.8,0.8-1.8,1.9c0,1.1,0.8,1.9,1.8,1.9c0.5,0,0.9-0.2,1.1-0.5V37h0.8V35.2L49.8,35.2z M46.9,35.2
		c0-0.6,0.4-1.2,1.1-1.2c0.6,0,1.1,0.5,1.1,1.2c0,0.6-0.5,1.2-1.1,1.2C47.4,36.3,46.9,35.8,46.9,35.2L46.9,35.2z M20.5,35.2v-1.8
		h-0.8v0.5c-0.3-0.3-0.6-0.5-1.1-0.5c-1,0-1.8,0.8-1.8,1.9c0,1.1,0.8,1.9,1.8,1.9c0.5,0,0.9-0.2,1.1-0.5V37h0.8V35.2L20.5,35.2z
		 M17.5,35.2c0-0.6,0.4-1.2,1.1-1.2c0.6,0,1.1,0.5,1.1,1.2c0,0.6-0.5,1.2-1.1,1.2C17.9,36.3,17.5,35.8,17.5,35.2z"/>
	<g>
		<rect id="rect19" x="24" y="5.9" class="st9" width="11.9" height="21.4"/>
		<path id="XMLID_330_" inkscape:connector-curvature="0" class="st10" d="M24.8,16.5c0-4.3,2-8.2,5.2-10.7
			c-2.3-1.8-5.2-2.9-8.4-2.9C14.1,2.9,8,9,8,16.5s6.1,13.6,13.6,13.6c3.2,0,6.1-1.1,8.4-2.9C26.9,24.8,24.8,20.9,24.8,16.5z"/>
		<path id="path22" inkscape:connector-curvature="0" class="st11" d="M52,16.5c0,7.5-6.1,13.6-13.6,13.6c-3.2,0-6.1-1.1-8.4-2.9
			c3.2-2.5,5.2-6.3,5.2-10.7s-2-8.2-5.2-10.7c2.3-1.8,5.2-2.9,8.4-2.9C45.9,2.9,52,9.1,52,16.5z"/>
	</g>
</g>
</svg>
