<?xml version="1.0" encoding="utf-8"?>
<!-- Generator: Adobe Illustrator 26.3.1, SVG Export Plug-In . SVG Version: 6.00 Build 0)  -->
<svg version="1.1"
	 id="Layer_1" xmlns:rdf="http://www.w3.org/1999/02/22-rdf-syntax-ns#" xmlns:svg="http://www.w3.org/2000/svg" xmlns:inkscape="http://www.inkscape.org/namespaces/inkscape" xmlns:sodipodi="http://sodipodi.sourceforge.net/DTD/sodipodi-0.dtd" xmlns:dc="http://purl.org/dc/elements/1.1/" xmlns:cc="http://creativecommons.org/ns#" inkscape:version="0.91 r13725"
	 xmlns="http://www.w3.org/2000/svg" xmlns:xlink="http://www.w3.org/1999/xlink" x="0px" y="0px" viewBox="0 0 60 40"
	 style="enable-background:new 0 0 60 40;" xml:space="preserve">
<style type="text/css">
	.st0{fill:#00579F;}
	.st1{fill:#FAA61A;}
	.st2{fill-rule:evenodd;clip-rule:evenodd;fill:#8B3392;}
	.st3{fill-rule:evenodd;clip-rule:evenodd;fill:#FFFFFF;}
	.st4{fill:#FFFFFF;}
	.st5{fill:#D91E39;}
	.st6{fill:#E6175B;}
	.st7{fill:#951B21;}
	.st8{fill:#EC107F;}
	.st9{fill:#F05B22;}
	.st10{fill:#E91D25;}
	.st11{fill:#F59D1E;}
	.st12{fill:#ED1C24;}
	.st13{fill:#F7941D;}
</style>
<sodipodi:namedview  bordercolor="#666666" borderopacity="1" gridtolerance="10" guidetolerance="10" id="namedview19" inkscape:current-layer="Layer_1" inkscape:cx="34.690897" inkscape:cy="131.15483" inkscape:pageopacity="0" inkscape:pageshadow="2" inkscape:window-height="705" inkscape:window-maximized="1" inkscape:window-width="1366" inkscape:window-x="-8" inkscape:window-y="-8" inkscape:zoom="0.35355339" objecttolerance="10" pagecolor="#ffffff" showgrid="false">
	</sodipodi:namedview>
<g id="g4158" transform="matrix(4.4299631,0,0,4.4299631,-81.165783,-105.04783)">
	<polygon id="polygon9" class="st0" points="3.7,49.7 2.6,49.7 3.3,45.6 4.3,45.6 	"/>
	<path id="path11" inkscape:connector-curvature="0" class="st0" d="M7.5,45.7c-0.2-0.1-0.5-0.2-0.9-0.2c-1,0-1.8,0.6-1.8,1.3
		c0,0.6,0.5,0.9,0.9,1.1c0.4,0.2,0.5,0.3,0.5,0.5c0,0.3-0.3,0.4-0.6,0.4c-0.4,0-0.6-0.1-1-0.2l-0.1-0.1l-0.1,0.9
		c0.2,0.1,0.7,0.2,1.2,0.2c1.1,0,1.8-0.5,1.8-1.4c0-0.5-0.3-0.8-0.9-1.1c-0.4-0.2-0.6-0.3-0.6-0.5s0.2-0.3,0.6-0.3
		c0.3,0,0.6,0.1,0.8,0.2h0.1L7.5,45.7L7.5,45.7z"/>
	<path id="path13" inkscape:connector-curvature="0" class="st0" d="M8.9,48.2C9,48,9.3,47.1,9.3,47.1s0.1-0.2,0.1-0.4L9.5,47
		c0,0,0.2,1,0.2,1.2C9.6,48.2,9.1,48.2,8.9,48.2L8.9,48.2z M10.2,45.6H9.4c-0.3,0-0.4,0.1-0.5,0.3l-1.6,3.7h1.1c0,0,0.2-0.5,0.2-0.6
		c0.1,0,1.2,0,1.3,0c0,0.1,0.1,0.6,0.1,0.6h1L10.2,45.6L10.2,45.6L10.2,45.6z"/>
	<path id="path15" inkscape:connector-curvature="0" class="st0" d="M1.8,45.6l-1,2.8l-0.1-0.6c-0.2-0.6-0.8-1.4-1.5-1.7l0.9,3.5
		h1.1l1.6-4.1L1.8,45.6L1.8,45.6L1.8,45.6z"/>
	<path id="path17" inkscape:connector-curvature="0" class="st1" d="M-0.2,45.6h-1.7v0.1c1.3,0.3,2.2,1.1,2.5,2.1L0.3,46
		C0.2,45.7,0,45.6-0.2,45.6L-0.2,45.6z"/>
</g>
<g>
	<rect x="90.6" y="56.9" class="st2" width="62.7" height="41.9"/>
	<polygon class="st3" points="134.2,63.7 126.8,71.2 127.3,75.3 128.7,72.5 132.9,77.8 138.9,59.6 119.1,67.8 124.4,70.7 	"/>
	<g>
		<path class="st4" d="M127.8,76.8c0,0-6.3,0-7.8,0c-6,0.9-6.6,9.6-0.1,10.8h7.9v-7.8c2.6,0.1,3.2,3.4,1.2,4.6c0.4,0.5,2,2.2,2,2.2
			C135.1,82.8,132.7,77.1,127.8,76.8z M124.9,84.6c0,0-4,0-4.4,0c-2.7,0.2-3.6-4.3-0.3-4.9c1,0,4.6,0,4.6,0L124.9,84.6L124.9,84.6z"
			/>
	</g>
	<path class="st3" d="M144.2,80.7c-1.3,0-2.9,0-2.9,0l-1.2,2.9c0,0,3.3,0,3.7,0c0.7,0,0.8,1,0,1.1c-0.9,0-6.3,0-6.3,0v-5h9.7v-2.9
		h-1.4c-0.4-6.1-7.7-6.2-9.6-2.9c0.4,0.3,2.2,1.9,2.2,1.9c1.1-1.7,4.1-1.6,4.6,1h-8.3v10.8h9.3c2.1,0,3.1-1.6,3.3-2.9
		C147.3,82.5,146,81,144.2,80.7z"/>
	<path class="st3" d="M116.2,76.8h-3.8c-1.2,1.5-3.3,7.4,0.8,11.9c0,0,1.8-1.5,2.2-1.8C114.2,85.6,112,80.5,116.2,76.8z"/>
	<path class="st3" d="M106.6,88.8c0,1.3-1.1,2.4-2.4,2.4c-1.3,0-2.4-1.1-2.4-2.4c0-1.3,1.1-2.4,2.4-2.4
		C105.5,86.3,106.6,87.5,106.6,88.8z"/>
	<g>
		<g>
			<path class="st3" d="M101.5,76.8c-6,0.9-6.6,9.6-0.1,10.8l0,0c0.5-1,1.5-1.7,2.7-1.7c1.2,0,2.2,0.7,2.7,1.7h2.5
				c0-0.4,0-10.8,0-10.8S103.1,76.8,101.5,76.8z M106.5,84.6c0,0-4,0-4.4,0c-2.7,0.2-3.6-4.3-0.3-4.9c1,0,4.6,0,4.6,0L106.5,84.6
				L106.5,84.6z"/>
		</g>
	</g>
	<g>
		<g>
			<g>
				<path class="st3" d="M104.3,74.2c1-0.2,1.4-2.1-0.1-2.6c-0.2,0-2.5,0-2.5,0v3.8h1v-1.2l1.2,1.2h1.6L104.3,74.2z M104.2,72.8
					c0,0.1-0.1,0.2-0.2,0.2h-1.2v-0.5h1.2C104.1,72.6,104.2,72.8,104.2,72.8L104.2,72.8z"/>
			</g>
		</g>
		<g>
			<g>
				<path class="st3" d="M107.3,71.6c-1.1,0-1.9,0.9-1.9,1.9c0,1.1,0.9,1.9,1.9,1.9c1.1,0,1.9-0.9,1.9-1.9S108.4,71.6,107.3,71.6z
					 M107.3,74.2c-0.5,0-0.8-0.4-0.8-0.8c0-0.5,0.4-0.8,0.8-0.8c0.5,0,0.8,0.4,0.8,0.8C108.2,74,107.8,74.2,107.3,74.2z"/>
			</g>
		</g>
		<path class="st3" d="M118.1,72.7h1.7v-1.1h-1.4c-1.1,0-2.1,0.9-2.1,1.9c0,1,0.9,1.9,2.1,1.9h1.4v-1.1h-1.7c-0.3,0-0.5-0.1-0.6-0.3
			h2.3v-1h-2.3C117.6,72.8,117.9,72.7,118.1,72.7z"/>
		<g>
			<path class="st3" d="M111.3,74.2c-0.4,0-0.8-0.4-0.8-0.8l0,0c0-0.4,0.4-0.8,0.8-0.8h1.6v-1.1h-1.5c-1.1,0-2.1,0.9-2.1,1.9
				s0.9,1.9,2.1,1.9h1.5v-1.1C112.9,74.2,111.3,74.2,111.3,74.2z"/>
		</g>
		<polygon class="st3" points="123.8,71.7 120.1,71.7 120.1,72.6 121.5,72.6 121.5,75.2 122.5,75.2 122.5,72.6 123.8,72.6 		"/>
		<polygon class="st4" points="115,73.5 116.8,71.7 115.4,71.7 114.4,72.7 114.4,71.7 113.4,71.7 113.4,75.2 114.4,75.2 114.4,74.2 
			115.4,75.2 116.9,75.2 		"/>
	</g>
	<g>
		<path class="st4" d="M129.9,89.3c-0.2,0-0.3,0.1-0.4,0.3c-0.1,0.2-0.2,0.3-0.2,0.5c0,0.1,0,0.2,0.1,0.3c0.1,0.1,0.1,0.2,0.2,0.2
			c0,0,0.1,0,0.2-0.1l0.1,0.3c-0.1,0.1-0.2,0.1-0.3,0.1c-0.1,0-0.2,0-0.3-0.1c-0.1-0.1-0.1-0.1-0.2-0.3c0-0.1,0-0.2,0-0.3v-0.1
			c0-0.2,0.1-0.5,0.4-0.8c0.1-0.1,0.1-0.1,0.3-0.2h0.4L129.9,89.3L129.9,89.3z"/>
		<path class="st4" d="M131.5,89.3v1.5h-0.3v-0.2c0-0.1-0.1-0.2-0.2-0.3c-0.1-0.1-0.2-0.2-0.2-0.2c-0.1-0.1-0.2-0.1-0.3-0.1
			c-0.1,0-0.2,0-0.3,0.1l0,0c0,0,0,0.1,0.1,0.1l0.1,0.1c0,0,0.1,0,0.2-0.1l0.1,0.3c-0.1,0.1-0.3,0.1-0.3,0.1c-0.1,0-0.2,0-0.3-0.1
			c-0.1-0.1-0.1-0.1-0.2-0.2c0,0,0-0.1,0-0.2c0-0.2,0.1-0.3,0.2-0.4c0.1-0.1,0.2-0.1,0.3-0.1l0,0c0-0.1,0-0.1-0.1-0.2
			c-0.1-0.1-0.1-0.1-0.2-0.1h-0.2v-0.2h-0.1v-0.3h2v0.3h-0.3V89.3z M131.2,89.3h-0.7c0.2,0.1,0.3,0.3,0.3,0.5
			c0.1,0.1,0.3,0.2,0.4,0.3V89.3z"/>
		<path class="st4" d="M132.1,89.3v1.5h-0.3v-1.6h-0.2V89h0.7v0.3L132.1,89.3L132.1,89.3z"/>
		<path class="st4" d="M133.6,89.3h-1.4v-0.3h1.9v0.3h-0.2v1.5h-0.3c0-0.1-0.2-0.2-0.4-0.4c-0.1-0.1-0.2-0.1-0.4-0.2
			s-0.3-0.1-0.4-0.1l-0.1-0.3c0.1-0.1,0.3-0.2,0.6-0.3C133.1,89.6,133.3,89.5,133.6,89.3z M133.6,89.7c-0.1,0-0.1,0-0.2,0.1
			c-0.1,0-0.3,0.1-0.5,0.2h-0.1c0.2,0.1,0.5,0.2,0.7,0.4c0,0,0.1,0,0.1,0.1V89.7z"/>
		<path class="st4" d="M134.5,89.3v1.5h-0.3v-1.6H134V89h0.7v0.3L134.5,89.3L134.5,89.3z"/>
		<path class="st4" d="M134.6,89.3v-0.3h0.9l0,0c0-0.1-0.1-0.2-0.2-0.3c0,0,0,0-0.1,0h-0.1c-0.1,0-0.1,0-0.1,0c-0.1,0-0.1,0-0.1,0
			c-0.1,0-0.1,0.1-0.2,0.1l-0.1-0.2c0.1-0.1,0.3-0.2,0.5-0.2c0.1,0,0.2,0,0.2,0c0.1,0,0.2,0,0.3,0.1c0.2,0.1,0.3,0.3,0.3,0.5h0.2
			v0.3H134.6z M135.7,91.2c-0.1-0.1-0.3-0.2-0.4-0.3c-0.1,0-0.2-0.1-0.3-0.2c-0.1,0-0.2-0.1-0.2-0.1v-0.4h0.1c0.1,0,0.1,0,0.1,0
			c0.1,0,0.3,0,0.3-0.1c0.2-0.1,0.3-0.2,0.3-0.2c0-0.1,0-0.1-0.1-0.2c-0.1,0-0.1-0.1-0.2-0.1c0,0,0,0-0.1,0h-0.1
			c-0.1,0-0.1,0.1-0.1,0.1c0,0.1,0.1,0.1,0.3,0.1l-0.2,0.3c-0.1,0-0.1,0-0.2-0.1c-0.1-0.1-0.2-0.2-0.2-0.3s0.1-0.2,0.2-0.3
			c0.1-0.1,0.2-0.1,0.4-0.1c0.1,0,0.1,0,0.2,0c0,0,0.1,0,0.1,0.1c0.2,0.1,0.3,0.3,0.3,0.5c0,0.2-0.1,0.3-0.2,0.4
			c-0.1,0.1-0.2,0.1-0.4,0.2c0.1,0,0.1,0.1,0.2,0.1c0.2,0.1,0.3,0.3,0.4,0.4L135.7,91.2z"/>
		<path class="st4" d="M137.9,89.3v1.5h-0.3v-0.6c0-0.1,0-0.1-0.1-0.2c0-0.1-0.1-0.1-0.1-0.1s-0.1,0-0.1,0.1s-0.1,0.1-0.1,0.2h-0.3
			c0-0.1,0-0.2-0.1-0.2c0-0.1-0.1-0.1-0.2-0.1c0,0-0.1,0-0.1,0.1l-0.1,0.1v0.1l0,0c0,0.2,0.1,0.2,0.3,0.2c0,0,0.1,0,0.2,0l-0.2,0.4
			c-0.1,0-0.1,0-0.1,0c-0.1,0-0.3-0.1-0.4-0.2c0,0-0.1-0.1-0.1-0.2c0-0.1,0-0.1,0-0.2c0-0.2,0.1-0.3,0.2-0.4
			c0.1-0.1,0.2-0.2,0.4-0.2s0.3,0.1,0.4,0.2c0.1-0.1,0.2-0.2,0.4-0.2c0.1,0,0.1,0,0.2,0.1v-0.5h-1.8v-0.3h2.2v0.3L137.9,89.3
			L137.9,89.3z"/>
		<path class="st4" d="M140.2,89.3h-1.4v-0.3h1.9v0.3h-0.2v1.5h-0.3c0-0.1-0.2-0.2-0.4-0.4c-0.1-0.1-0.2-0.1-0.4-0.2
			c-0.2-0.1-0.3-0.1-0.4-0.1l-0.1-0.2c0.1-0.1,0.3-0.2,0.6-0.3C139.7,89.6,139.9,89.5,140.2,89.3z M140.2,89.7c-0.1,0-0.1,0-0.2,0.1
			c-0.1,0-0.3,0.1-0.5,0.2h-0.1c0.2,0.1,0.5,0.2,0.7,0.4c0,0,0.1,0,0.1,0.1V89.7z"/>
		<path class="st4" d="M141.3,89.3c-0.1,0.1-0.1,0.2-0.1,0.3c0,0,0,0.2,0.2,0.5c0.1,0.1,0.1,0.3,0.1,0.4c0,0.2-0.1,0.3-0.3,0.4
			c-0.1,0-0.2,0-0.3,0.1v-0.3c0.2,0,0.3-0.1,0.3-0.2s0-0.2-0.1-0.4c-0.1-0.2-0.1-0.3-0.1-0.4s0-0.2,0.1-0.4h-0.3v-0.3h0.9v0.3H141.3
			z"/>
		<path class="st4" d="M141.9,89.3v1.5h-0.3v-1.6h-0.2V89h0.7v0.3L141.9,89.3L141.9,89.3z"/>
		<path class="st4" d="M142.7,90.1c-0.1,0-0.3,0-0.3-0.1c-0.1-0.1-0.1-0.2-0.1-0.4c0-0.1,0-0.2,0.1-0.3c0.1-0.1,0.2-0.1,0.3-0.1
			c0.2,0,0.3,0.1,0.4,0.3c0,0.1,0.1,0.2,0.1,0.2c0,0.1,0,0.3-0.1,0.3C142.9,90.1,142.8,90.1,142.7,90.1z M143,91.1
			c-0.4-0.3-0.7-0.5-0.8-0.6v-0.4c0.5,0.4,0.9,0.7,1.1,0.9v0.3L143,91.1z M142.7,89.5L142.7,89.5c-0.2,0-0.3,0.1-0.3,0.1
			s0,0.1,0.1,0.1l0.1,0.1l0,0C142.7,89.8,142.7,89.7,142.7,89.5C142.8,89.6,142.8,89.5,142.7,89.5z"/>
		<path class="st4" d="M145.2,88.8c-0.4-0.2-0.7-0.3-0.9-0.3c-0.3,0-0.5,0.1-0.6,0.3c0,0.1-0.1,0.1-0.1,0.3h0.3v0.3h-0.2v1.4h-0.3
			v-1.6h-0.2V89h0.2c0-0.2,0.1-0.4,0.2-0.5c0.1-0.1,0.3-0.2,0.6-0.3h0.1h0.1c0.2,0,0.4,0,0.6,0.1c0.1,0,0.3,0.1,0.5,0.3L145.2,88.8z
			"/>
		<path class="st4" d="M144.9,89.3L144.9,89.3c0.1,0,0.3,0.1,0.4,0.1c0.2,0.1,0.3,0.3,0.3,0.4s0,0.2-0.1,0.3
			c-0.1,0.1-0.2,0.1-0.3,0.2c-0.1,0-0.2,0-0.3,0v-0.3h0.1c0.2,0,0.2-0.1,0.2-0.2c0-0.1-0.1-0.2-0.4-0.3v1.3h-0.3
			c0-0.1-0.1-0.2-0.1-0.2s-0.1-0.1-0.1-0.2l-0.1-0.1c-0.1,0-0.1-0.1-0.1-0.1s0,0-0.1,0c-0.1,0-0.2-0.1-0.3-0.1v-0.3
			c0.1,0,0.2-0.1,0.5-0.3c0,0,0.1-0.1,0.2-0.1c0,0,0.1-0.1,0.2-0.1l0,0h-1v-0.3h2.1v0.3H144.9z M144.6,89.7c-0.1,0-0.1,0.1-0.2,0.2
			c0,0-0.1,0-0.1,0.1l-0.1,0.1c0,0,0.1,0.1,0.2,0.1c0.1,0.1,0.2,0.2,0.3,0.3v-0.8H144.6z"/>
		<path class="st4" d="M146.2,90.1c-0.1,0-0.3,0-0.3-0.1c-0.1-0.1-0.1-0.2-0.1-0.4c0-0.1,0-0.2,0.1-0.3c0.1-0.1,0.2-0.1,0.3-0.1
			c0.2,0,0.3,0.1,0.4,0.3c0,0.1,0.1,0.2,0.1,0.2c0,0.1,0,0.3-0.1,0.3C146.5,90.1,146.4,90.1,146.2,90.1z M146.6,91.1
			c-0.4-0.3-0.7-0.5-0.8-0.6v-0.4c0.5,0.4,0.9,0.7,1.1,0.9v0.3L146.6,91.1z M146.3,89.5L146.3,89.5c-0.2,0-0.3,0.1-0.3,0.1
			s0,0.1,0.1,0.1l0.1,0.1l0,0C146.3,89.8,146.3,89.7,146.3,89.5C146.4,89.6,146.4,89.5,146.3,89.5z"/>
	</g>
	<g>
		<polygon class="st4" points="112,91.1 112.6,91.2 112.8,91.1 112.2,90.8 		"/>
		<g>
			<path class="st4" d="M112.2,89.5v-0.3h-4.5v0.3h0.8v0.8c0,0,0.6,0,0.7,0c0,0,0.2-0.1,0.2-0.2c0,0.1,0,0.3,0,0.3
				c0,0.1-0.1,0.3-0.2,0.3c-0.1,0-0.9,0-1,0c-0.1,0-0.1,0-0.1-0.3c0-0.2,0-0.7,0-0.7h-0.3v0.9c0,0.1,0,0.3,0.3,0.3
				c0.2,0,1.3,0,1.3,0c0.2,0,0.3-0.2,0.4-0.4c0-0.4,0-0.9,0-0.9h-0.3c0,0.1,0,0.2-0.2,0.3c-0.1,0-0.4,0-0.4,0v-0.5h1v1.5h0.4v-1.5
				h0.3v1.5c0,0,1.2,0,1.3,0s0.4-0.1,0.4-0.4C112.3,90.2,112.3,89.6,112.2,89.5l-0.3,0.1c0,0.1,0,0.2-0.2,0.2c-0.1,0-0.8,0-0.8,0
				v-0.4h1.3V89.5z M111.7,90.2c0.1,0,0.1-0.1,0.2-0.2c0,0.1,0,0.2,0,0.4c0,0.1-0.1,0.3-0.2,0.3c-0.1,0-0.8,0-0.8,0v-0.5
				C110.9,90.2,111.6,90.2,111.7,90.2z"/>
		</g>
		<rect x="112.6" y="89.8" class="st4" width="0.8" height="0.4"/>
		<g>
			<path class="st4" d="M113.8,89.1v0.3h1.3v0.2h-1.3v0.8c0,0.3,0.2,0.5,0.4,0.5c0.3,0,1.1,0,1.1,0v-1.5h0.3v1.5h0.3v-1.8H113.8z
				 M115.1,90.7c0,0-0.7,0-0.8,0s-0.2-0.2-0.2-0.3c0-0.2,0-0.4,0-0.4h1V90.7z"/>
		</g>
		<path class="st4" d="M117.6,89.5h1.6v0.2c-0.1,0-0.4,0-0.5,0c0,0.1-0.3,0.2-0.3,0c-0.3,0-0.8,0-0.8,0s0,0.8,0,0.9s0,0.4,0.2,0.4
			c0.2,0,0.6,0,0.6,0v-0.3c0,0-0.3,0-0.4,0c-0.1,0-0.2-0.1-0.2-0.2c0-0.2,0-0.5,0-0.5h0.4v0.3h0.4v-0.2c0-0.1,0.4-0.1,0.4,0
			s0,0.9,0,0.9h0.3v-1.5h0.2V91h0.3v-1.8h-2.5v0.3H117.6z"/>
		<g>
			<g>
				<path class="st4" d="M117.1,89.2c-0.1,0-0.8,0-0.8,0s0,0.4,0,0.5c0,0.2,0.1,0.3,0.4,0.4c0.3,0,0.7,0,0.7,0v-0.6
					C117.3,89.3,117.2,89.2,117.1,89.2z M116.8,89.7c-0.1,0-0.3-0.1-0.3-0.1c0-0.1,0.1-0.1,0.3-0.1c0.1,0,0.3,0.1,0.3,0.1
					C117.1,89.7,117,89.7,116.8,89.7z"/>
			</g>
		</g>
		<polygon class="st4" points="116.3,90.2 116.3,90.4 117.3,90.9 117.3,90.6 		"/>
		<g>
			<g>
				<path class="st4" d="M125.4,89.2c-0.1,0-0.8,0-0.8,0s0,0.4,0,0.5c0,0.2,0.1,0.3,0.4,0.4c0.3,0,0.7,0,0.7,0v-0.6
					C125.6,89.3,125.5,89.2,125.4,89.2z M125.1,89.7c-0.1,0-0.3-0.1-0.3-0.1c0-0.1,0.1-0.1,0.3-0.1c0.1,0,0.3,0.1,0.3,0.1
					C125.4,89.7,125.3,89.7,125.1,89.7z"/>
			</g>
		</g>
		<polygon class="st4" points="124.6,90.2 124.6,90.4 125.6,90.9 125.6,90.6 		"/>
		<path class="st4" d="M127.5,89.7v-0.2h0.6v-0.3h-2.2v0.3h1.3v0.2h-1.3v0.8c0,0.3,0.2,0.5,0.4,0.5c0.3,0,1.1,0,1.1,0V90h0.3
			c0.1,0,0.1,0,0.1,0.1s0,0.2,0,0.2c0,0.1,0,0.1-0.1,0.2c-0.1,0-0.1,0-0.1,0v0.3h0.3c0.1,0,0.2-0.1,0.2-0.2c0-0.2,0-0.8,0-0.8h-0.6
			V89.7z M127.2,90.7c0,0-0.7,0-0.8,0s-0.2-0.2-0.2-0.3c0-0.2,0-0.4,0-0.4h1V90l0,0V90.7z"/>
		<g>
			<path class="st4" d="M121.1,89.1v0.3h1.3v0.2h-1.3v0.8c0,0.3,0.2,0.5,0.4,0.5c0.3,0,1.1,0,1.1,0v-1.5h0.4l-0.1,0.3v0.2
				c0,0,0.2,0,0.3,0c0.1,0,0.2,0.1,0.2,0.4c0,0.2,0,0.3-0.2,0.3c-0.1,0-0.3,0-0.3,0v0.3c0,0,0.2,0,0.3,0c0.1,0,0.4,0,0.5-0.3
				c0-0.7,0.1-0.9-0.4-0.9l0.1-0.2h0.5v1.5h0.3v-1.8L121.1,89.1L121.1,89.1z M122.4,90.7c0,0-0.7,0-0.8,0s-0.2-0.2-0.2-0.3
				c0-0.2,0-0.4,0-0.4h1V90.7z"/>
		</g>
	</g>
</g>
<path class="st5" d="M275.2,105l-21-27l0.1-0.2l27.5,3.3C279.6,89.1,277.4,97,275.2,105z"/>
<path class="st6" d="M276.3,105.2c2.2-8,4.4-15.9,6.6-24c6.8,9.5,13.4,18.7,20.1,28c0,0.1-0.1,0.1-0.1,0.2L276.3,105.2z"/>
<path class="st5" d="M276.3,106.4l25.4,4.1v0.3l-22,11C278.7,116.6,277.5,111.6,276.3,106.4z"/>
<path class="st7" d="M266.8,135.5c2.7-9.6,5.5-19.3,8.3-29.1c0.1,0.2,0.2,0.4,0.3,0.7c1.3,5.9,2.6,11.8,3.9,17.7
	c0.1,0.6,0,0.9-0.5,1.3c-3.8,3-7.5,6.1-11.3,9.2c-0.2,0.1-0.4,0.3-0.6,0.4L266.8,135.5z"/>
<path class="st5" d="M296.1,98l13.2-2.4c-1.7,4.6-3.3,9.1-5,13.7L296.1,98z"/>
<path class="st6" d="M283.3,121.2l19.7-10l0.2,0.1c-0.2,0.8-0.5,1.5-0.8,2.2c-0.1,0.2-0.3,0.3-0.5,0.4c-6.1,2.5-12.3,4.9-18.4,7.4
	C283.4,121.3,283.4,121.3,283.3,121.2L283.3,121.2z"/>
<path class="st6" d="M315.6,101.4h-7.3l2-5.3l5.4,5.1C315.6,101.2,315.6,101.3,315.6,101.4z"/>
<path class="st7" d="M264.5,93.4l-11.2-10.6c0-0.1,0.1-0.1,0.1-0.2c0.9,0,1.9,0,2.8,0c0.1,0,0.3,0.2,0.4,0.3
	c2.6,3.4,5.3,6.7,7.9,10.1c0.1,0.1,0.1,0.2,0.1,0.3L264.5,93.4z"/>
<path class="st8" d="M203.8,114.8c0.1-0.8,0.1-2,0.1-3.1V97h2.2v7.6h0.1c0.8-1.4,2.2-2.2,4.1-2.2c3,0,5.1,2.5,5.1,6.2
	c0,4.3-2.7,6.5-5.4,6.5c-1.8,0-3.2-0.7-4.1-2.3h-0.1l-0.1,2C205.7,114.8,203.8,114.8,203.8,114.8z M206.1,109.9c0,0.3,0,0.5,0.1,0.8
	c0.4,1.5,1.7,2.6,3.3,2.6c2.3,0,3.7-1.9,3.7-4.7c0-2.4-1.3-4.5-3.6-4.5c-1.5,0-2.9,1-3.3,2.7c-0.1,0.3-0.1,0.6-0.1,0.9L206.1,109.9
	L206.1,109.9z"/>
<path d="M218.2,97.9h2.2v8.1h0.1c0.4-0.6,0.9-1.3,1.3-1.8l5.1-6.3h2.7l-6.1,7.1l6.6,9.7h-2.6l-5.5-8.3l-1.6,1.8v6.4h-2.2V97.9z"/>
<path d="M238.8,114.8l-0.2-1.5h-0.1c-0.9,1.2-2.2,1.8-3.7,1.8c-2.5,0-3.7-1.7-3.7-3.5c0-2.9,2.6-4.5,7.3-4.5v-0.3
	c0-1-0.3-2.8-2.7-2.8c-1.1,0-2.2,0.3-3.2,0.9l-0.5-1.5c1-0.7,2.5-1.1,4-1.1c3.7,0,4.6,2.5,4.6,4.9v4.5c0,1,0.1,1.9,0.2,2.9h-2V114.8
	z M238.5,108.6c-2.4-0.1-5.1,0.4-5.1,2.7c0,1.4,1,2.1,2.1,2.1c1.3,0,2.5-0.8,2.9-2c0.1-0.2,0.1-0.5,0.1-0.7V108.6z"/>
<path d="M243.8,112.5c0.9,0.5,1.9,0.8,2.9,0.9c1.6,0,2.3-0.8,2.3-1.8c0-1.1-0.6-1.6-2.2-2.2c-2.2-0.8-3.2-2-3.2-3.4
	c0-1.9,1.6-3.5,4.2-3.5c1,0,2.1,0.2,3,0.7l-0.5,1.6c-0.7-0.5-1.6-0.7-2.5-0.7c-1.3,0-2,0.7-2,1.6c0,1,0.7,1.5,2.3,2
	c2.1,0.8,3.2,1.8,3.2,3.6c0,2.1-1.6,3.6-4.5,3.6c-1.3,0-2.5-0.3-3.4-0.8L243.8,112.5z"/>
<path d="M254,97h2.2v7.5h0.1c0.4-0.7,0.9-1.2,1.6-1.6s1.5-0.6,2.2-0.6c1.6,0,4.2,1,4.2,5.2v7.2h-2.2v-6.9c0-1.9-0.7-3.6-2.8-3.6
	c-1.4,0-2.5,1-3,2.2c-0.1,0.3-0.2,0.7-0.1,1.1v7.3H254V97z"/>
<path id="XMLID_1775_" inkscape:connector-curvature="0" d="M220.4,310.5v-9c0-3.5-2.1-5.7-5.7-5.7c-1.8,0-3.8,0.6-5.1,2.6
	c-1.1-1.6-2.6-2.6-4.8-2.6c-1.5,0-3,0.5-4.2,2.1V296h-3.2v14.4h3.2v-8c0-2.6,1.4-3.8,3.5-3.8s3.2,1.4,3.2,3.8v8h3.2v-8
	c0-2.6,1.5-3.8,3.5-3.8c2.1,0,3.2,1.4,3.2,3.8v8h3.2V310.5z M267.2,296h-5.1v-4.4H259v4.4h-2.9v2.9h2.9v6.6c0,3.3,1.4,5.3,5,5.3
	c1.4,0,2.9-0.5,3.9-1.1L267,307c-0.9,0.6-2,0.8-2.7,0.8c-1.5,0-2.1-0.9-2.1-2.4v-6.5h5.1L267.2,296L267.2,296z M294,295.7
	c-1.8,0-3,0.9-3.8,2.1V296H287v14.4h3.2v-8.1c0-2.4,1.1-3.8,3-3.8c0.6,0,1.4,0.2,2,0.3l0.9-3C295.5,295.7,294.6,295.7,294,295.7
	L294,295.7z M253.5,297.2c-1.5-1.1-3.6-1.5-5.9-1.5c-3.6,0-6,1.8-6,4.7c0,2.4,1.8,3.8,5,4.2l1.5,0.2c1.6,0.3,2.6,0.8,2.6,1.5
	c0,1.1-1.2,1.8-3.3,1.8s-3.8-0.8-4.8-1.5l-1.5,2.4c1.6,1.2,3.9,1.8,6.2,1.8c4.2,0,6.6-2,6.6-4.7c0-2.6-2-3.9-5-4.4l-1.5-0.2
	c-1.4-0.2-2.4-0.5-2.4-1.4c0-1.1,1.1-1.6,2.7-1.6c1.8,0,3.6,0.8,4.5,1.2L253.5,297.2L253.5,297.2z M337.5,295.7
	c-1.8,0-3,0.9-3.8,2.1V296h-3.2v14.4h3.2v-8.1c0-2.4,1.1-3.8,3-3.8c0.6,0,1.4,0.2,2,0.3l0.9-3C339,295.7,338.1,295.7,337.5,295.7
	L337.5,295.7z M297.2,303.2c0,4.4,3,7.5,7.7,7.5c2.1,0,3.6-0.5,5.1-1.6l-1.5-2.6c-1.2,0.9-2.4,1.4-3.8,1.4c-2.6,0-4.4-1.8-4.4-4.7
	c0-2.7,1.8-4.5,4.4-4.7c1.4,0,2.6,0.5,3.8,1.4l1.5-2.6c-1.5-1.2-3-1.6-5.1-1.6C300.2,295.7,297.2,298.9,297.2,303.2L297.2,303.2
	L297.2,303.2z M326.4,303.2V296h-3.2v1.8c-1.1-1.4-2.6-2.1-4.5-2.1c-4.1,0-7.2,3.2-7.2,7.5s3.2,7.5,7.2,7.5c2.1,0,3.6-0.8,4.5-2.1
	v1.8h3.2V303.2L326.4,303.2z M314.8,303.2c0-2.6,1.6-4.7,4.4-4.7c2.6,0,4.4,2,4.4,4.7c0,2.6-1.8,4.7-4.4,4.7
	C316.5,307.8,314.8,305.8,314.8,303.2L314.8,303.2z M277,295.7c-4.2,0-7.2,3-7.2,7.5s3,7.5,7.4,7.5c2.1,0,4.2-0.6,5.9-2l-1.5-2.3
	c-1.2,0.9-2.7,1.5-4.2,1.5c-2,0-3.9-0.9-4.4-3.5h10.7c0-0.5,0-0.8,0-1.2C283.8,298.7,281.1,295.7,277,295.7L277,295.7L277,295.7z
	 M277,298.4c2,0,3.3,1.2,3.6,3.5h-7.5C273.4,299.9,274.8,298.4,277,298.4L277,298.4z M355.4,303.2v-12.9h-3.2v7.5
	c-1.1-1.4-2.6-2.1-4.5-2.1c-4.1,0-7.2,3.2-7.2,7.5c0,4.4,3.2,7.5,7.2,7.5c2.1,0,3.6-0.8,4.5-2.1v1.8h3.2V303.2L355.4,303.2z
	 M343.8,303.2c0-2.6,1.6-4.7,4.4-4.7c2.6,0,4.4,2,4.4,4.7c0,2.6-1.8,4.7-4.4,4.7C345.5,307.8,343.8,305.8,343.8,303.2L343.8,303.2z
	 M238.2,303.2V296H235v1.8c-1.1-1.4-2.6-2.1-4.5-2.1c-4.1,0-7.2,3.2-7.2,7.5s3.2,7.5,7.2,7.5c2.1,0,3.6-0.8,4.5-2.1v1.8h3.2V303.2
	L238.2,303.2z M226.5,303.2c0-2.6,1.6-4.7,4.4-4.7c2.6,0,4.4,2,4.4,4.7c0,2.6-1.8,4.7-4.4,4.7C228.1,307.8,226.5,305.8,226.5,303.2z
	"/>
<g>
	<rect id="rect19" x="252.5" y="186.3" class="st9" width="47.4" height="85.2"/>
	<path id="XMLID_330_" inkscape:connector-curvature="0" class="st10" d="M255.7,228.9c0-17.3,8.1-32.7,20.6-42.6
		c-9.2-7.2-20.8-11.6-33.4-11.6c-29.9,0-54.2,24.2-54.2,54.2s24.2,54.2,54.2,54.2c12.6,0,24.2-4.4,33.4-11.6
		C263.8,261.7,255.7,246.2,255.7,228.9z"/>
	<path id="path22" inkscape:connector-curvature="0" class="st11" d="M363.9,228.9c0,29.9-24.2,54.2-54.2,54.2
		c-12.6,0-24.2-4.4-33.4-11.6c12.6-9.9,20.6-25.3,20.6-42.6s-8.1-32.7-20.6-42.6c9.2-7.2,20.8-11.6,33.4-11.6
		C339.6,174.7,363.9,199.1,363.9,228.9z"/>
</g>
<g id="g1438" transform="translate(-1266.194 -110.295) scale(2.59472)">
	<g id="g1406" transform="translate(481.988 41.407)">
		<g id="g1390">
			<path id="path1386" class="st12" d="M20.6,7.8h-3.6c-0.1,0-0.1,0.1-0.1,0.1v0.3c0,0.1,0.1,0.1,0.1,0.1h2.7v1.5
				c-0.1-0.1-0.2-0.2-0.3-0.3c-0.3-0.3-0.7-0.5-1-0.5c-0.3,0-0.5,0.1-0.7,0.4c-0.2,0.2-0.3,0.5-0.3,0.7c0,0.2,0,0.5,0.2,0.8
				c0.2,0.3,0.6,0.5,0.9,0.5c0.4,0,0.8-0.3,0.8-0.7c0-0.2-0.1-0.4-0.3-0.5l-0.2-0.1v0.3c0,0.1-0.2,0.2-0.3,0.2
				c-0.1,0-0.3-0.1-0.4-0.1C18,10.4,18,10.3,18,10.2c0-0.1,0-0.2,0.1-0.3c0.1-0.1,0.2-0.2,0.3-0.2c0.4,0,0.7,0.2,0.9,0.5
				c0.2,0.3,0.3,0.6,0.3,0.9V12l0.5,0.3c0,0,0,0,0.1,0c0.1,0,0.1-0.1,0.1-0.1V8.3h0.2c0.1,0,0.1-0.1,0.1-0.1V7.9
				C20.7,7.8,20.7,7.8,20.6,7.8L20.6,7.8z"/>
			<path id="path1388" class="st12" d="M27.9,7.8h-4.6c-0.1,0-0.1,0.1-0.1,0.1v0.5c-0.5-0.5-0.8-0.7-1.2-0.7c-0.3,0-0.6,0.1-0.9,0.3
				c-0.2,0.2-0.4,0.4-0.4,0.7c0,0.8,0.9,0.8,1.1,0.7c0,0,0.1-0.1,0.1-0.1c0.2,0,0.3,0.1,0.3,0.3c0,0.2-0.3,0.3-0.6,0.3
				c-0.2,0-0.3-0.1-0.4-0.2l-0.1-0.2L21,9.8C21,9.8,21,9.9,21,10c0,0.2,0.1,0.4,0.3,0.5c0.2,0.1,0.4,0.2,0.6,0.2
				c0.3,0,0.6-0.1,0.8-0.4c0.2-0.2,0.2-0.4,0.2-0.7c0-0.1-0.1-0.3-0.2-0.5c-0.1-0.2-0.3-0.3-0.5-0.3c-0.1,0-0.2,0-0.3,0.1
				c0,0-0.1,0-0.1,0c0,0-0.1,0-0.1-0.1c0,0-0.1-0.1-0.1-0.2c0-0.2,0.2-0.4,0.5-0.4h0c0.2,0,0.4,0.1,0.6,0.3c0.2,0.2,0.3,0.3,0.4,0.5
				V12l0.5,0.3c0,0,0,0,0.1,0c0.1,0,0.1-0.1,0.1-0.1V8.3h0.8v2.5l0.6,0.3h0c0.1,0,0.1,0,0.1-0.1v0c0.1-0.7,0.4-1.2,1-1.6v0.1
				c0,0.1,0,0.4,0,0.5c0,0.1,0,0.1,0,0.2c0,0.3,0,0.7,0.1,1c0.2,0.6,0.5,0.8,0.7,0.8h0c0.1,0,0.2,0,0.3-0.1c0,0,0.1-0.1,0.1-0.2
				c0-0.1,0-0.2-0.1-0.3l-0.1-0.1l-0.1,0c-0.1,0-0.2,0-0.2,0h0c0,0,0,0-0.1,0c0,0-0.1-0.1-0.2-0.3c0-0.1-0.1-0.3-0.1-0.5
				c0-0.8,0.2-1.4,0.4-1.6h0c0,0,0.1-0.1,0.1-0.1c0,0,0,0,0-0.1v0c-0.1-0.3-0.4-0.4-0.8-0.5h-0.1c-0.3,0.1-0.6,0.3-1.1,0.6
				c-0.1,0.1-0.2,0.2-0.3,0.3v-1h2.5C28,8.3,28,8.3,28,8.2V7.9C28,7.8,28,7.8,27.9,7.8L27.9,7.8z"/>
		</g>
		<path id="path1392" class="st12" d="M15.6,9.1c0,0.1,0,0.2,0,0.3c0,0.5-0.2,1-0.4,1.4c-0.1,0.2-0.2,0.3-0.3,0.5
			c-0.8,1.2-2.1,2-3.6,2c-0.6,0-1.3-0.1-1.8-0.4c-1.4-0.7-2.5-2.1-2.5-3.8c0-1.7,1-3.1,2.4-3.8C9.4,5.5,9.3,5.6,9.2,5.8c0,0,0,0,0,0
			C9.1,5.9,9.1,5.9,9,5.9C8.9,6,8.9,6.1,8.8,6.1l0,0l0,0c0,0,0,0.1-0.1,0.1c0,0.1-0.1,0.1-0.1,0.2C8.4,6.7,8.2,6.9,8.1,7.2
			c0,0,0,0.1,0,0.1c0,0,0,0.1,0,0.1c0,0,0,0,0,0.1C8,7.5,8,7.5,8,7.6c0,0,0,0.1,0,0.1c0,0,0,0,0,0.1c0,0,0,0.1,0,0.1L7.8,8.1
			c0,0,0,0.1,0,0.1v0.4c0,1.2,0.5,2.2,1.4,2.9c0.6,0.5,1.5,0.8,2.3,0.8c0.8,0,1.6-0.3,2.2-0.7c0.5-0.3,0.8-0.7,1.1-1.2
			c0-0.1,0.1-0.1,0.1-0.2c0.2-0.5,0.3-0.9,0.3-1.5V8.7c0-0.1,0-0.2,0-0.4l0,0c0.1,0.1,0.1,0.1,0.2,0.1c0.1-0.1,0.1-0.2,0.2-0.3
			c0,0.2,0.1,0.3,0.1,0.5C15.6,8.9,15.6,9,15.6,9.1L15.6,9.1z"/>
		<path id="path1394" class="st13" d="M11.9,5.7l-0.8-1.5C9.8,4.8,8.9,6.2,8.9,7.7c0,0.8,0.2,1.5,0.6,2.1c0-0.2,0-0.4,0-0.6
			C9.5,7.6,10.5,6.3,11.9,5.7z"/>
		<path id="path1396" class="st12" d="M12.5,6.4c0.3-0.1,0.7-0.1,1-0.1c0.2,0,0.5,0,0.6,0.1l0-0.6l0-1.3c-0.1,0-0.3,0-0.5,0
			c-0.7,0-1.4,0.2-1.9,0.6l0.4,0.8c-0.8,0.3-1.4,0.8-1.8,1.5C10.2,7.6,10,8,10,8.5c0.1-0.2,0.2-0.4,0.4-0.6
			C10.9,7.2,11.6,6.7,12.5,6.4z"/>
		<path id="path1398" class="st13" d="M14.4,5.7l0,0.9c-0.3-0.1-0.6-0.1-1-0.1c-0.6,0-1.2,0.2-1.7,0.5c-0.6,0.4-1.2,1-1.4,1.8
			c0.3-0.3,0.6-0.6,0.9-0.9c0.5-0.3,1.2-0.5,1.8-0.5c0.5,0,1,0.1,1.4,0.3c0.3,0.1,0.6,0.3,0.9,0.6l0.5-0.8l0.6-1
			C15.9,6,15.2,5.7,14.4,5.7L14.4,5.7z"/>
		<path id="path1400" class="st13" d="M15.2,8.7v0.1c0,0.8-0.3,1.4-0.3,1.5c0,0.1-0.1,0.1-0.1,0.2c-0.3,0.5-0.6,0.9-1.1,1.2
			c-0.6,0.4-1.4,0.7-2.2,0.7c-0.9,0-1.7-0.3-2.3-0.8c-0.8-0.7-1.4-1.7-1.4-2.9V8.3c0,0,0-0.1,0-0.1l0.1-0.3c0,0,0-0.1,0-0.1
			c0,0,0,0,0-0.1c0,0,0-0.1,0-0.1C8,7.5,8,7.5,8,7.4c0,0,0,0,0-0.1c0,0,0-0.1,0-0.1c0,0,0-0.1,0-0.1C8.2,7,8.4,6.7,8.5,6.5
			c0-0.1,0.1-0.1,0.1-0.2c0,0,0-0.1,0.1-0.1c0,0,0,0,0,0c0,0,0,0,0,0C8.9,6.1,8.9,6,9,6c0.1-0.1,0.1-0.1,0.2-0.1c0,0,0,0,0,0
			s0,0,0,0c-0.2,0.4-0.4,1-0.4,1.5c0,0.1,0,0.3,0,0.5c0,1.9,1.1,3.5,2.5,3.5h0.1c0.2,0,0.4,0,0.6-0.1c1-0.3,1.7-1.1,1.7-2.2V9.1
			c0-0.6-0.3-1.2-0.7-1.6c0.3,0,0.6,0.1,0.8,0.1c0.5,0.1,1,0.4,1.4,0.7l0,0C15.2,8.5,15.2,8.6,15.2,8.7L15.2,8.7z"/>
		<g id="g1404">
			<path id="path1402" class="st13" d="M15.2,8.7v0.1c0,0.8-0.4,1.5-0.4,1.5c0,0.1-0.1,0.1-0.1,0.2c-0.3,0.5-0.6,0.9-1.1,1.2
				c-0.6,0.5-1.4,0.7-2.2,0.7c-0.9,0-1.7-0.3-2.4-0.8c-0.9-0.7-1.4-1.8-1.4-2.9s0.5-2.2,1.4-2.9l0,0c0,0,0,0,0,0s0,0,0,0
				C8.3,6.5,7.8,7.6,7.8,8.7s0.5,2.1,1.4,2.9c0.6,0.5,1.5,0.8,2.3,0.8c0.8,0,1.5-0.2,2.2-0.7c0.5-0.3,0.8-0.7,1.1-1.2
				c0-0.1,0.1-0.1,0.1-0.2c0,0,0.4-0.7,0.4-1.5L15.2,8.7c-0.1-0.1-0.1-0.3-0.1-0.4v0l0,0l0,0C15.2,8.5,15.2,8.6,15.2,8.7L15.2,8.7z"
				/>
		</g>
	</g>
</g>
</svg>
