<?xml version="1.0" encoding="utf-8"?>
<!-- Generator: Adobe Illustrator 26.3.1, SVG Export Plug-In . SVG Version: 6.00 Build 0)  -->
<svg version="1.1"
	 id="Layer_1" xmlns:rdf="http://www.w3.org/1999/02/22-rdf-syntax-ns#" xmlns:svg="http://www.w3.org/2000/svg" xmlns:inkscape="http://www.inkscape.org/namespaces/inkscape" xmlns:sodipodi="http://sodipodi.sourceforge.net/DTD/sodipodi-0.dtd" xmlns:dc="http://purl.org/dc/elements/1.1/" xmlns:cc="http://creativecommons.org/ns#" inkscape:version="0.91 r13725"
	 xmlns="http://www.w3.org/2000/svg" xmlns:xlink="http://www.w3.org/1999/xlink" x="0px" y="0px" viewBox="0 0 60 40"
	 style="enable-background:new 0 0 60 40;" xml:space="preserve">
<style type="text/css">
	.st0{fill:#00579F;}
	.st1{fill:#FAA61A;}
	.st2{fill-rule:evenodd;clip-rule:evenodd;fill:#8B3392;}
	.st3{fill-rule:evenodd;clip-rule:evenodd;fill:#FFFFFF;}
	.st4{fill:#FFFFFF;}
	.st5{fill:#D91E39;}
	.st6{fill:#E6175B;}
	.st7{fill:#951B21;}
	.st8{fill:#EC107F;}
	.st9{fill:#F05B22;}
	.st10{fill:#E91D25;}
	.st11{fill:#F59D1E;}
</style>
<sodipodi:namedview  bordercolor="#666666" borderopacity="1" gridtolerance="10" guidetolerance="10" id="namedview19" inkscape:current-layer="Layer_1" inkscape:cx="34.690897" inkscape:cy="131.15483" inkscape:pageopacity="0" inkscape:pageshadow="2" inkscape:window-height="705" inkscape:window-maximized="1" inkscape:window-width="1366" inkscape:window-x="-8" inkscape:window-y="-8" inkscape:zoom="0.35355339" objecttolerance="10" pagecolor="#ffffff" showgrid="false">
	</sodipodi:namedview>
<g id="g4158" transform="matrix(4.4299631,0,0,4.4299631,-81.165783,-105.04783)">
	<polygon id="polygon9" class="st0" points="3.7,49.7 2.6,49.7 3.3,45.6 4.3,45.6 	"/>
	<path id="path11" inkscape:connector-curvature="0" class="st0" d="M7.5,45.7c-0.2-0.1-0.5-0.2-0.9-0.2c-1,0-1.8,0.6-1.8,1.3
		c0,0.6,0.5,0.9,0.9,1.1c0.4,0.2,0.5,0.3,0.5,0.5c0,0.3-0.3,0.4-0.6,0.4c-0.4,0-0.6-0.1-1-0.2l-0.1-0.1l-0.1,0.9
		c0.2,0.1,0.7,0.2,1.2,0.2c1.1,0,1.8-0.5,1.8-1.4c0-0.5-0.3-0.8-0.9-1.1c-0.4-0.2-0.6-0.3-0.6-0.5c0-0.2,0.2-0.3,0.6-0.3
		c0.3,0,0.6,0.1,0.8,0.2l0.1,0L7.5,45.7C7.5,45.7,7.5,45.7,7.5,45.7z"/>
	<path id="path13" inkscape:connector-curvature="0" class="st0" d="M8.9,48.2C9,48,9.3,47.1,9.3,47.1c0,0,0.1-0.2,0.1-0.4l0.1,0.3
		c0,0,0.2,1,0.2,1.2C9.6,48.2,9.1,48.2,8.9,48.2L8.9,48.2z M10.2,45.6H9.4c-0.3,0-0.4,0.1-0.5,0.3l-1.6,3.7h1.1c0,0,0.2-0.5,0.2-0.6
		c0.1,0,1.2,0,1.3,0c0,0.1,0.1,0.6,0.1,0.6h1L10.2,45.6L10.2,45.6L10.2,45.6z"/>
	<path id="path15" inkscape:connector-curvature="0" class="st0" d="M1.8,45.6l-1,2.8l-0.1-0.6c-0.2-0.6-0.8-1.4-1.5-1.7l0.9,3.5
		h1.1l1.6-4.1H1.8L1.8,45.6L1.8,45.6z"/>
	<path id="path17" inkscape:connector-curvature="0" class="st1" d="M-0.2,45.6h-1.7l0,0.1c1.3,0.3,2.2,1.1,2.5,2.1L0.3,46
		C0.2,45.7,0,45.6-0.2,45.6L-0.2,45.6z"/>
</g>
<g>
	<rect x="-1.3" y="-1" class="st2" width="62.7" height="41.9"/>
	<polygon class="st3" points="42.3,5.8 34.9,13.3 35.4,17.5 36.8,14.6 41,20 47,1.7 27.2,10 32.5,12.8 	"/>
	<g>
		<path class="st4" d="M35.9,18.9c0,0-6.3,0-7.8,0c-6,0.9-6.6,9.6-0.1,10.8h7.9v-7.8c2.6,0.1,3.2,3.4,1.2,4.6c0.4,0.5,2,2.2,2,2.2
			C43.2,25,40.8,19.2,35.9,18.9z M33,26.7c0,0-4,0-4.4,0c-2.7,0.2-3.6-4.3-0.3-4.9c1,0,4.6,0,4.6,0V26.7z"/>
	</g>
	<path class="st3" d="M52.3,22.8c-1.3,0-2.9,0-2.9,0l-1.2,2.9c0,0,3.3,0,3.7,0c0.7,0,0.8,1,0,1.1c-0.9,0-6.3,0-6.3,0v-5h9.7v-2.9
		c0,0-1.4,0-1.4,0c-0.4-6.1-7.7-6.2-9.6-2.9c0.4,0.3,2.2,1.9,2.2,1.9c1.1-1.7,4.1-1.6,4.6,1h-8.3v10.8h9.3c2.1,0,3.1-1.6,3.3-2.9
		C55.4,24.6,54.1,23.1,52.3,22.8z"/>
	<path class="st3" d="M24.3,18.9h-3.8c-1.2,1.5-3.3,7.4,0.8,11.9c0,0,1.8-1.5,2.2-1.8C22.3,27.7,20.1,22.6,24.3,18.9z"/>
	<path class="st3" d="M14.7,30.9c0,1.3-1.1,2.4-2.4,2.4c-1.3,0-2.4-1.1-2.4-2.4c0-1.3,1.1-2.4,2.4-2.4
		C13.6,28.5,14.7,29.6,14.7,30.9z"/>
	<g>
		<g>
			<path class="st3" d="M9.6,18.9c-6,0.9-6.6,9.6-0.1,10.8h0c0.5-1,1.5-1.7,2.7-1.7s2.2,0.7,2.7,1.7h2.5c0-0.4,0-10.8,0-10.8
				S11.2,18.9,9.6,18.9z M14.6,26.7c0,0-4,0-4.4,0c-2.7,0.2-3.6-4.3-0.3-4.9c1,0,4.6,0,4.6,0V26.7z"/>
		</g>
	</g>
	<g>
		<g>
			<g>
				<path class="st3" d="M12.4,16.3c1-0.2,1.4-2.1-0.1-2.6c-0.2,0-2.5,0-2.5,0v3.8h1v-1.2l1.2,1.2h1.6L12.4,16.3z M12.3,15
					c0,0.1-0.1,0.2-0.2,0.2h-1.2v-0.5h1.2C12.2,14.7,12.3,14.9,12.3,15L12.3,15z"/>
			</g>
		</g>
		<g>
			<g>
				<path class="st3" d="M15.4,13.7c-1.1,0-1.9,0.9-1.9,1.9c0,1.1,0.9,1.9,1.9,1.9c1.1,0,1.9-0.9,1.9-1.9
					C17.3,14.6,16.5,13.7,15.4,13.7z M15.4,16.4c-0.5,0-0.8-0.4-0.8-0.8c0-0.5,0.4-0.8,0.8-0.8c0.5,0,0.8,0.4,0.8,0.8
					C16.3,16.1,15.9,16.4,15.4,16.4z"/>
			</g>
		</g>
		<path class="st3" d="M26.2,14.8h1.7v-1.1h-1.4c-1.1,0-2.1,0.9-2.1,1.9c0,1,0.9,1.9,2.1,1.9h1.4v-1.1h-1.7c-0.3,0-0.5-0.1-0.6-0.3
			h2.3v-1h-2.3C25.7,14.9,26,14.8,26.2,14.8z"/>
		<g>
			<path class="st3" d="M19.4,16.4c-0.4,0-0.8-0.4-0.8-0.8v0c0-0.4,0.4-0.8,0.8-0.8h1.6v-1.1h-1.5c-1.1,0-2.1,0.9-2.1,1.9
				c0,1,0.9,1.9,2.1,1.9h1.5v-1.1H19.4z"/>
		</g>
		<polygon class="st3" points="31.9,13.8 28.2,13.8 28.2,14.7 29.6,14.7 29.6,17.4 30.6,17.4 30.6,14.7 31.9,14.7 		"/>
		<polygon class="st4" points="23.1,15.6 24.9,13.8 23.5,13.8 22.5,14.8 22.5,13.8 21.5,13.8 21.5,17.4 22.5,17.4 22.5,16.4 
			23.5,17.4 25,17.4 		"/>
	</g>
	<g>
		<path class="st4" d="M38,31.5c-0.2,0-0.3,0.1-0.4,0.3c-0.1,0.2-0.2,0.3-0.2,0.5c0,0.1,0,0.2,0.1,0.3c0.1,0.1,0.1,0.2,0.2,0.2
			c0,0,0.1,0,0.2-0.1l0.1,0.3c-0.1,0.1-0.2,0.1-0.3,0.1c-0.1,0-0.2,0-0.3-0.1c-0.1-0.1-0.1-0.1-0.2-0.3c0-0.1,0-0.2,0-0.3v-0.1
			c0-0.2,0.1-0.5,0.4-0.8c0.1-0.1,0.1-0.1,0.3-0.2h0.4L38,31.5C38,31.5,38,31.5,38,31.5z"/>
		<path class="st4" d="M39.6,31.5V33h-0.3v-0.2c0-0.1-0.1-0.2-0.2-0.3c-0.1-0.1-0.2-0.2-0.2-0.2c-0.1-0.1-0.2-0.1-0.3-0.1
			c-0.1,0-0.2,0-0.3,0.1c0,0,0,0,0,0c0,0,0,0.1,0.1,0.1c0,0,0.1,0.1,0.1,0.1c0,0,0.1,0,0.2-0.1l0.1,0.3c-0.1,0.1-0.3,0.1-0.3,0.1
			c-0.1,0-0.2,0-0.3-0.1c-0.1-0.1-0.1-0.1-0.2-0.2c0,0,0-0.1,0-0.2c0-0.2,0.1-0.3,0.2-0.4c0.1-0.1,0.2-0.1,0.3-0.1c0,0,0,0,0,0
			c0-0.1,0-0.1-0.1-0.2c-0.1-0.1-0.1-0.1-0.2-0.1H38v-0.2h-0.1v-0.3h2v0.3H39.6z M39.3,31.5h-0.7c0.2,0.1,0.3,0.3,0.3,0.5
			c0.1,0.1,0.3,0.2,0.4,0.3V31.5z"/>
		<path class="st4" d="M40.2,31.5V33h-0.3v-1.6h-0.2v-0.3h0.7v0.3H40.2z"/>
		<path class="st4" d="M41.7,31.5h-1.4v-0.3h1.9v0.3H42V33h-0.3c0-0.1-0.2-0.2-0.4-0.4c-0.1-0.1-0.2-0.1-0.4-0.2
			c-0.2-0.1-0.3-0.1-0.4-0.1l-0.1-0.3c0.1-0.1,0.3-0.2,0.6-0.3C41.2,31.7,41.4,31.6,41.7,31.5z M41.7,31.8c-0.1,0-0.1,0-0.2,0.1
			c-0.1,0-0.3,0.1-0.5,0.2l-0.1,0c0.2,0.1,0.5,0.2,0.7,0.4c0,0,0.1,0,0.1,0.1V31.8z"/>
		<path class="st4" d="M42.6,31.5V33h-0.3v-1.6h-0.2v-0.3h0.7v0.3H42.6z"/>
		<path class="st4" d="M42.7,31.5v-0.3h0.9c0,0,0,0,0,0c0-0.1-0.1-0.2-0.2-0.3c0,0,0,0-0.1,0c0,0-0.1,0-0.1,0c-0.1,0-0.1,0-0.1,0
			c-0.1,0-0.1,0-0.1,0c-0.1,0-0.1,0.1-0.2,0.1l-0.1-0.2c0.1-0.1,0.3-0.2,0.5-0.2c0.1,0,0.2,0,0.2,0c0.1,0,0.2,0,0.3,0.1
			c0.2,0.1,0.3,0.3,0.3,0.5h0.2v0.3H42.7z M43.8,33.3c-0.1-0.1-0.3-0.2-0.4-0.3c-0.1,0-0.2-0.1-0.3-0.2c-0.1,0-0.2-0.1-0.2-0.1
			l0-0.4c0,0,0.1,0,0.1,0c0.1,0,0.1,0,0.1,0c0.1,0,0.3,0,0.3-0.1c0.2-0.1,0.3-0.2,0.3-0.2c0-0.1,0-0.1-0.1-0.2
			c-0.1,0-0.1-0.1-0.2-0.1c0,0,0,0-0.1,0c0,0-0.1,0-0.1,0c-0.1,0-0.1,0.1-0.1,0.1c0,0.1,0.1,0.1,0.3,0.1l-0.2,0.3
			c-0.1,0-0.1,0-0.2-0.1c-0.1-0.1-0.2-0.2-0.2-0.3c0-0.1,0.1-0.2,0.2-0.3c0.1-0.1,0.2-0.1,0.4-0.1c0.1,0,0.1,0,0.2,0
			c0,0,0.1,0,0.1,0.1c0.2,0.1,0.3,0.3,0.3,0.5c0,0.2-0.1,0.3-0.2,0.4c-0.1,0.1-0.2,0.1-0.4,0.2c0.1,0,0.1,0.1,0.2,0.1
			c0.2,0.1,0.3,0.3,0.4,0.4L43.8,33.3z"/>
		<path class="st4" d="M46,31.5V33h-0.3v-0.6c0-0.1,0-0.1-0.1-0.2c0-0.1-0.1-0.1-0.1-0.1c0,0-0.1,0-0.1,0.1c0,0.1-0.1,0.1-0.1,0.2
			h-0.3c0-0.1,0-0.2-0.1-0.2c0-0.1-0.1-0.1-0.2-0.1c0,0-0.1,0-0.1,0.1c0,0-0.1,0.1-0.1,0.1l0,0.1v0c0,0.2,0.1,0.2,0.3,0.2
			c0,0,0.1,0,0.2,0L44.8,33c-0.1,0-0.1,0-0.1,0c-0.1,0-0.3-0.1-0.4-0.2c0,0-0.1-0.1-0.1-0.2c0-0.1,0-0.1,0-0.2
			c0-0.2,0.1-0.3,0.2-0.4c0.1-0.1,0.2-0.2,0.4-0.2c0.2,0,0.3,0.1,0.4,0.2c0.1-0.1,0.2-0.2,0.4-0.2c0.1,0,0.1,0,0.2,0.1v-0.5H44v-0.3
			h2.2v0.3H46z"/>
		<path class="st4" d="M48.3,31.5h-1.4v-0.3h1.9v0.3h-0.2V33h-0.3c0-0.1-0.2-0.2-0.4-0.4c-0.1-0.1-0.2-0.1-0.4-0.2
			c-0.2-0.1-0.3-0.1-0.4-0.1L47,32.1c0.1-0.1,0.3-0.2,0.6-0.3C47.8,31.7,48,31.6,48.3,31.5z M48.3,31.8c-0.1,0-0.1,0-0.2,0.1
			c-0.1,0-0.3,0.1-0.5,0.2l-0.1,0c0.2,0.1,0.5,0.2,0.7,0.4c0,0,0.1,0,0.1,0.1V31.8z"/>
		<path class="st4" d="M49.4,31.5c-0.1,0.1-0.1,0.2-0.1,0.3c0,0,0,0.2,0.2,0.5c0.1,0.1,0.1,0.3,0.1,0.4c0,0.2-0.1,0.3-0.3,0.4
			c-0.1,0-0.2,0-0.3,0.1l0-0.3c0.2,0,0.3-0.1,0.3-0.2c0-0.1,0-0.2-0.1-0.4c-0.1-0.2-0.1-0.3-0.1-0.4c0-0.1,0-0.2,0.1-0.4h-0.3v-0.3
			h0.9v0.3H49.4z"/>
		<path class="st4" d="M50,31.5V33h-0.3v-1.6h-0.2v-0.3h0.7v0.3H50z"/>
		<path class="st4" d="M50.8,32.2c-0.1,0-0.3,0-0.3-0.1c-0.1-0.1-0.1-0.2-0.1-0.4c0-0.1,0-0.2,0.1-0.3c0.1-0.1,0.2-0.1,0.3-0.1
			c0.2,0,0.3,0.1,0.4,0.3c0,0.1,0.1,0.2,0.1,0.2c0,0.1,0,0.3-0.1,0.3C51,32.2,50.9,32.2,50.8,32.2z M51.1,33.2
			c-0.4-0.3-0.7-0.5-0.8-0.6l0-0.4c0.5,0.4,0.9,0.7,1.1,0.9v0.3L51.1,33.2z M50.8,31.6C50.8,31.6,50.8,31.6,50.8,31.6
			c-0.2,0-0.3,0.1-0.3,0.1c0,0,0,0.1,0.1,0.1c0,0,0.1,0.1,0.1,0.1l0,0c0.1,0,0.1-0.1,0.1-0.2C50.9,31.7,50.9,31.6,50.8,31.6z"/>
		<path class="st4" d="M53.3,31c-0.4-0.2-0.7-0.3-0.9-0.3c-0.3,0-0.5,0.1-0.6,0.3c0,0.1-0.1,0.1-0.1,0.3H52v0.3h-0.2V33h-0.3v-1.6
			h-0.2v-0.3h0.2c0-0.2,0.1-0.4,0.2-0.5c0.1-0.1,0.3-0.2,0.6-0.3c0,0,0.1,0,0.1,0h0.1c0.2,0,0.4,0,0.6,0.1c0.1,0,0.3,0.1,0.5,0.3
			L53.3,31z"/>
		<path class="st4" d="M53,31.5L53,31.5c0.1,0,0.3,0.1,0.4,0.1c0.2,0.1,0.3,0.3,0.3,0.4c0,0.1,0,0.2-0.1,0.3
			c-0.1,0.1-0.2,0.1-0.3,0.2c-0.1,0-0.2,0-0.3,0v-0.3c0,0,0.1,0,0.1,0c0.2,0,0.2-0.1,0.2-0.2c0-0.1-0.1-0.2-0.4-0.3V33h-0.3
			c0-0.1-0.1-0.2-0.1-0.2c0,0-0.1-0.1-0.1-0.2c0,0-0.1-0.1-0.1-0.1c-0.1,0-0.1-0.1-0.1-0.1c0,0,0,0-0.1,0c-0.1,0-0.2-0.1-0.3-0.1
			L51.8,32c0.1,0,0.2-0.1,0.5-0.3c0,0,0.1-0.1,0.2-0.1c0,0,0.1-0.1,0.2-0.1v0h-1v-0.3h2.1v0.3H53z M52.7,31.8
			c-0.1,0-0.1,0.1-0.2,0.2c0,0-0.1,0-0.1,0.1c0,0-0.1,0.1-0.1,0.1c0,0,0.1,0.1,0.2,0.1c0.1,0.1,0.2,0.2,0.3,0.3V31.8z"/>
		<path class="st4" d="M54.3,32.2c-0.1,0-0.3,0-0.3-0.1c-0.1-0.1-0.1-0.2-0.1-0.4c0-0.1,0-0.2,0.1-0.3c0.1-0.1,0.2-0.1,0.3-0.1
			c0.2,0,0.3,0.1,0.4,0.3c0,0.1,0.1,0.2,0.1,0.2c0,0.1,0,0.3-0.1,0.3C54.6,32.2,54.5,32.2,54.3,32.2z M54.7,33.2
			c-0.4-0.3-0.7-0.5-0.8-0.6l0-0.4c0.5,0.4,0.9,0.7,1.1,0.9v0.3L54.7,33.2z M54.4,31.6C54.4,31.6,54.4,31.6,54.4,31.6
			c-0.2,0-0.3,0.1-0.3,0.1c0,0,0,0.1,0.1,0.1c0,0,0.1,0.1,0.1,0.1l0,0c0.1,0,0.1-0.1,0.1-0.2C54.5,31.7,54.5,31.6,54.4,31.6z"/>
	</g>
	<g>
		<polygon class="st4" points="20.1,33.2 20.7,33.4 20.9,33.2 20.3,33 		"/>
		<g>
			<path class="st4" d="M20.3,31.6v-0.3h-4.5v0.3h0.8v0.8c0,0,0.6,0,0.7,0c0,0,0.2-0.1,0.2-0.2c0,0.1,0,0.3,0,0.3
				c0,0.1-0.1,0.3-0.2,0.3c-0.1,0-0.9,0-1,0c-0.1,0-0.1,0-0.1-0.3c0-0.2,0-0.7,0-0.7h-0.3c0,0,0,0.9,0,0.9c0,0.1,0,0.3,0.3,0.3
				c0.2,0,1.3,0,1.3,0c0.2,0,0.3-0.2,0.4-0.4c0-0.4,0-0.9,0-0.9h-0.3c0,0.1,0,0.2-0.2,0.3c-0.1,0-0.4,0-0.4,0v-0.5H18v1.5h0.4v-1.5
				h0.3v1.5c0,0,1.2,0,1.3,0c0.1,0,0.4-0.1,0.4-0.4c0-0.3,0-0.9,0-0.9H20c0,0.1,0,0.2-0.2,0.2c-0.1,0-0.8,0-0.8,0v-0.4H20.3z
				 M19.8,32.3c0.1,0,0.1-0.1,0.2-0.2c0,0.1,0,0.2,0,0.4c0,0.1-0.1,0.3-0.2,0.3c-0.1,0-0.8,0-0.8,0v-0.5
				C19,32.3,19.7,32.3,19.8,32.3z"/>
		</g>
		<rect x="20.7" y="32" class="st4" width="0.8" height="0.4"/>
		<g>
			<path class="st4" d="M21.9,31.2v0.3h1.3v0.2h-1.3c0,0,0,0.8,0,0.8c0,0.3,0.2,0.5,0.4,0.5c0.3,0,1.1,0,1.1,0v-1.5h0.3v1.5h0.3
				v-1.8H21.9z M23.2,32.8c0,0-0.7,0-0.8,0c-0.1,0-0.2-0.2-0.2-0.3c0-0.2,0-0.4,0-0.4h1V32.8z"/>
		</g>
		<path class="st4" d="M25.7,31.6h1.6v0.2c-0.1,0-0.4,0-0.5,0c0,0.1-0.3,0.2-0.3,0c-0.3,0-0.8,0-0.8,0s0,0.8,0,0.9
			c0,0.1,0,0.4,0.2,0.4c0.2,0,0.6,0,0.6,0v-0.3c0,0-0.3,0-0.4,0c-0.1,0-0.2-0.1-0.2-0.2c0-0.2,0-0.5,0-0.5h0.4v0.3h0.4v-0.2
			c0-0.1,0.4-0.1,0.4,0c0,0.1,0,0.9,0,0.9h0.3v-1.5h0.2v1.5h0.3v-1.8h-2.5V31.6z"/>
		<g>
			<g>
				<path class="st4" d="M25.2,31.3c-0.1,0-0.8,0-0.8,0s0,0.4,0,0.5c0,0.2,0.1,0.3,0.4,0.4c0.3,0,0.7,0,0.7,0v-0.6
					C25.4,31.5,25.3,31.3,25.2,31.3z M24.9,31.8c-0.1,0-0.3-0.1-0.3-0.1c0-0.1,0.1-0.1,0.3-0.1c0.1,0,0.3,0.1,0.3,0.1
					C25.2,31.8,25.1,31.8,24.9,31.8z"/>
			</g>
		</g>
		<polygon class="st4" points="24.4,32.3 24.4,32.6 25.4,33.1 25.4,32.7 		"/>
		<g>
			<g>
				<path class="st4" d="M33.5,31.3c-0.1,0-0.8,0-0.8,0s0,0.4,0,0.5c0,0.2,0.1,0.3,0.4,0.4c0.3,0,0.7,0,0.7,0v-0.6
					C33.7,31.5,33.6,31.3,33.5,31.3z M33.2,31.8c-0.1,0-0.3-0.1-0.3-0.1c0-0.1,0.1-0.1,0.3-0.1c0.1,0,0.3,0.1,0.3,0.1
					C33.5,31.8,33.4,31.8,33.2,31.8z"/>
			</g>
		</g>
		<polygon class="st4" points="32.7,32.3 32.7,32.6 33.7,33.1 33.7,32.7 		"/>
		<path class="st4" d="M35.6,31.8v-0.2h0.6v-0.3H34v0.3h1.3v0.2H34c0,0,0,0.8,0,0.8c0,0.3,0.2,0.5,0.4,0.5c0.3,0,1.1,0,1.1,0v-0.9
			h0.3c0.1,0,0.1,0,0.1,0.1c0,0.1,0,0.2,0,0.2c0,0.1,0,0.1-0.1,0.2c-0.1,0-0.1,0-0.1,0v0.3H36c0.1,0,0.2-0.1,0.2-0.2
			c0-0.2,0-0.8,0-0.8H35.6z M35.3,32.8c0,0-0.7,0-0.8,0c-0.1,0-0.2-0.2-0.2-0.3c0-0.2,0-0.4,0-0.4h1l0,0.1h0V32.8z"/>
		<g>
			<path class="st4" d="M29.2,31.2v0.3h1.3v0.2h-1.3c0,0,0,0.8,0,0.8c0,0.3,0.2,0.5,0.4,0.5c0.3,0,1.1,0,1.1,0v-1.5h0.4l-0.1,0.3
				v0.2c0,0,0.2,0,0.3,0c0.1,0,0.2,0.1,0.2,0.4c0,0.2,0,0.3-0.2,0.3c-0.1,0-0.3,0-0.3,0V33c0,0,0.2,0,0.3,0c0.1,0,0.4,0,0.5-0.3
				c0-0.7,0.1-0.9-0.4-0.9l0.1-0.2H32v1.5h0.3v-1.8H29.2z M30.5,32.8c0,0-0.7,0-0.8,0c-0.1,0-0.2-0.2-0.2-0.3c0-0.2,0-0.4,0-0.4h1
				V32.8z"/>
		</g>
	</g>
</g>
<path class="st5" d="M275.2,105l-21-27l0.1-0.2l27.5,3.3C279.6,89.1,277.4,97,275.2,105z"/>
<path class="st6" d="M276.3,105.2c2.2-8,4.4-15.9,6.6-24c6.8,9.5,13.4,18.7,20.1,28c0,0.1-0.1,0.1-0.1,0.2L276.3,105.2z"/>
<path class="st5" d="M276.3,106.4l25.4,4.1l0,0.3l-22,11C278.7,116.6,277.5,111.6,276.3,106.4z"/>
<path class="st7" d="M266.8,135.5c2.7-9.6,5.5-19.3,8.3-29.1c0.1,0.2,0.2,0.4,0.3,0.7c1.3,5.9,2.6,11.8,3.9,17.7
	c0.1,0.6,0,0.9-0.5,1.3c-3.8,3-7.5,6.1-11.3,9.2c-0.2,0.1-0.4,0.3-0.6,0.4L266.8,135.5z"/>
<path class="st5" d="M296.1,98l13.2-2.4c-1.7,4.6-3.3,9.1-5,13.7L296.1,98z"/>
<path class="st6" d="M283.3,121.2l19.7-10l0.2,0.1c-0.2,0.8-0.5,1.5-0.8,2.2c-0.1,0.2-0.3,0.3-0.5,0.4c-6.1,2.5-12.3,4.9-18.4,7.4
	c-0.1,0-0.1,0-0.2,0L283.3,121.2z"/>
<path class="st6" d="M315.6,101.4h-7.3l2-5.3l5.4,5.1C315.6,101.2,315.6,101.3,315.6,101.4z"/>
<path class="st7" d="M264.5,93.4l-11.2-10.6c0-0.1,0.1-0.1,0.1-0.2c0.9,0,1.9,0,2.8,0c0.1,0,0.3,0.2,0.4,0.3
	c2.6,3.4,5.3,6.7,7.9,10.1c0.1,0.1,0.1,0.2,0.1,0.3L264.5,93.4z"/>
<path class="st8" d="M203.8,114.8c0.1-0.8,0.1-2,0.1-3.1V97h2.2v7.6h0.1c0.8-1.4,2.2-2.2,4.1-2.2c3,0,5.1,2.5,5.1,6.2
	c0,4.3-2.7,6.5-5.4,6.5c-1.8,0-3.2-0.7-4.1-2.3h-0.1l-0.1,2H203.8z M206.1,109.9c0,0.3,0,0.5,0.1,0.8c0.4,1.5,1.7,2.6,3.3,2.6
	c2.3,0,3.7-1.9,3.7-4.7c0-2.4-1.3-4.5-3.6-4.5c-1.5,0-2.9,1-3.3,2.7c-0.1,0.3-0.1,0.6-0.1,0.9V109.9z"/>
<path d="M218.2,97.9h2.2v8.1h0.1c0.4-0.6,0.9-1.3,1.3-1.8l5.1-6.3h2.7l-6.1,7.1l6.6,9.7h-2.6l-5.5-8.3l-1.6,1.8v6.4h-2.2V97.9z"/>
<path d="M238.8,114.8l-0.2-1.5h-0.1c-0.9,1.2-2.2,1.8-3.7,1.8c-2.5,0-3.7-1.7-3.7-3.5c0-2.9,2.6-4.5,7.3-4.5v-0.3
	c0-1-0.3-2.8-2.7-2.8c-1.1,0-2.2,0.3-3.2,0.9l-0.5-1.5c1-0.7,2.5-1.1,4-1.1c3.7,0,4.6,2.5,4.6,4.9v4.5c0,1,0.1,1.9,0.2,2.9H238.8z
	 M238.5,108.6c-2.4-0.1-5.1,0.4-5.1,2.7c0,1.4,1,2.1,2.1,2.1c1.3,0,2.5-0.8,2.9-2c0.1-0.2,0.1-0.5,0.1-0.7L238.5,108.6z"/>
<path d="M243.8,112.5c0.9,0.5,1.9,0.8,2.9,0.9c1.6,0,2.3-0.8,2.3-1.8c0-1.1-0.6-1.6-2.2-2.2c-2.2-0.8-3.2-2-3.2-3.4
	c0-1.9,1.6-3.5,4.2-3.5c1,0,2.1,0.2,3,0.7l-0.5,1.6c-0.7-0.5-1.6-0.7-2.5-0.7c-1.3,0-2,0.7-2,1.6c0,1,0.7,1.5,2.3,2
	c2.1,0.8,3.2,1.8,3.2,3.6c0,2.1-1.6,3.6-4.5,3.6c-1.3,0-2.5-0.3-3.4-0.8L243.8,112.5z"/>
<path d="M254,97h2.2v7.5h0.1c0.4-0.7,0.9-1.2,1.6-1.6c0.7-0.4,1.5-0.6,2.2-0.6c1.6,0,4.2,1,4.2,5.2v7.2h-2.2v-6.9
	c0-1.9-0.7-3.6-2.8-3.6c-1.4,0-2.5,1-3,2.2c-0.1,0.3-0.2,0.7-0.1,1.1v7.3H254V97z"/>
<path id="XMLID_1775_" inkscape:connector-curvature="0" d="M220.4,310.5v-9c0-3.5-2.1-5.7-5.7-5.7c-1.8,0-3.8,0.6-5.1,2.6
	c-1.1-1.6-2.6-2.6-4.8-2.6c-1.5,0-3,0.5-4.2,2.1V296h-3.2v14.4h3.2v-8c0-2.6,1.4-3.8,3.5-3.8s3.2,1.4,3.2,3.8v8h3.2v-8
	c0-2.6,1.5-3.8,3.5-3.8c2.1,0,3.2,1.4,3.2,3.8v8H220.4L220.4,310.5z M267.2,296h-5.1v-4.4H259v4.4h-2.9v2.9h2.9v6.6
	c0,3.3,1.4,5.3,5,5.3c1.4,0,2.9-0.5,3.9-1.1l-0.9-2.7c-0.9,0.6-2,0.8-2.7,0.8c-1.5,0-2.1-0.9-2.1-2.4v-6.5h5.1L267.2,296L267.2,296z
	 M294,295.7c-1.8,0-3,0.9-3.8,2.1V296h-3.2v14.4h3.2v-8.1c0-2.4,1.1-3.8,3-3.8c0.6,0,1.4,0.2,2,0.3l0.9-3
	C295.5,295.7,294.6,295.7,294,295.7L294,295.7z M253.5,297.2c-1.5-1.1-3.6-1.5-5.9-1.5c-3.6,0-6,1.8-6,4.7c0,2.4,1.8,3.8,5,4.2
	l1.5,0.2c1.6,0.3,2.6,0.8,2.6,1.5c0,1.1-1.2,1.8-3.3,1.8c-2.1,0-3.8-0.8-4.8-1.5l-1.5,2.4c1.6,1.2,3.9,1.8,6.2,1.8
	c4.2,0,6.6-2,6.6-4.7c0-2.6-2-3.9-5-4.4l-1.5-0.2c-1.4-0.2-2.4-0.5-2.4-1.4c0-1.1,1.1-1.6,2.7-1.6c1.8,0,3.6,0.8,4.5,1.2
	L253.5,297.2L253.5,297.2z M337.5,295.7c-1.8,0-3,0.9-3.8,2.1V296h-3.2v14.4h3.2v-8.1c0-2.4,1.1-3.8,3-3.8c0.6,0,1.4,0.2,2,0.3
	l0.9-3C339,295.7,338.1,295.7,337.5,295.7L337.5,295.7z M297.2,303.2c0,4.4,3,7.5,7.7,7.5c2.1,0,3.6-0.5,5.1-1.6l-1.5-2.6
	c-1.2,0.9-2.4,1.4-3.8,1.4c-2.6,0-4.4-1.8-4.4-4.7c0-2.7,1.8-4.5,4.4-4.7c1.4,0,2.6,0.5,3.8,1.4l1.5-2.6c-1.5-1.2-3-1.6-5.1-1.6
	C300.2,295.7,297.2,298.9,297.2,303.2L297.2,303.2L297.2,303.2z M326.4,303.2V296h-3.2v1.8c-1.1-1.4-2.6-2.1-4.5-2.1
	c-4.1,0-7.2,3.2-7.2,7.5s3.2,7.5,7.2,7.5c2.1,0,3.6-0.8,4.5-2.1v1.8h3.2V303.2L326.4,303.2z M314.8,303.2c0-2.6,1.6-4.7,4.4-4.7
	c2.6,0,4.4,2,4.4,4.7c0,2.6-1.8,4.7-4.4,4.7C316.5,307.8,314.8,305.8,314.8,303.2L314.8,303.2z M277,295.7c-4.2,0-7.2,3-7.2,7.5
	c0,4.5,3,7.5,7.4,7.5c2.1,0,4.2-0.6,5.9-2l-1.5-2.3c-1.2,0.9-2.7,1.5-4.2,1.5c-2,0-3.9-0.9-4.4-3.5h10.7c0-0.5,0-0.8,0-1.2
	C283.8,298.7,281.1,295.7,277,295.7L277,295.7L277,295.7z M277,298.4c2,0,3.3,1.2,3.6,3.5h-7.5C273.4,299.9,274.8,298.4,277,298.4
	L277,298.4z M355.4,303.2v-12.9h-3.2v7.5c-1.1-1.4-2.6-2.1-4.5-2.1c-4.1,0-7.2,3.2-7.2,7.5c0,4.4,3.2,7.5,7.2,7.5
	c2.1,0,3.6-0.8,4.5-2.1v1.8h3.2V303.2L355.4,303.2z M343.8,303.2c0-2.6,1.6-4.7,4.4-4.7c2.6,0,4.4,2,4.4,4.7c0,2.6-1.8,4.7-4.4,4.7
	C345.5,307.8,343.8,305.8,343.8,303.2L343.8,303.2z M238.2,303.2V296H235v1.8c-1.1-1.4-2.6-2.1-4.5-2.1c-4.1,0-7.2,3.2-7.2,7.5
	s3.2,7.5,7.2,7.5c2.1,0,3.6-0.8,4.5-2.1v1.8h3.2V303.2L238.2,303.2z M226.5,303.2c0-2.6,1.6-4.7,4.4-4.7c2.6,0,4.4,2,4.4,4.7
	c0,2.6-1.8,4.7-4.4,4.7C228.1,307.8,226.5,305.8,226.5,303.2z"/>
<g>
	<rect id="rect19" x="252.5" y="186.3" class="st9" width="47.4" height="85.2"/>
	<path id="XMLID_330_" inkscape:connector-curvature="0" class="st10" d="M255.7,228.9c0-17.3,8.1-32.7,20.6-42.6
		c-9.2-7.2-20.8-11.6-33.4-11.6c-29.9,0-54.2,24.2-54.2,54.2s24.2,54.2,54.2,54.2c12.6,0,24.2-4.4,33.4-11.6
		C263.8,261.7,255.7,246.2,255.7,228.9z"/>
	<path id="path22" inkscape:connector-curvature="0" class="st11" d="M363.9,228.9c0,29.9-24.2,54.2-54.2,54.2
		c-12.6,0-24.2-4.4-33.4-11.6c12.6-9.9,20.6-25.3,20.6-42.6s-8.1-32.7-20.6-42.6c9.2-7.2,20.8-11.6,33.4-11.6
		C339.6,174.7,363.9,199.1,363.9,228.9z"/>
</g>
</svg>
