<?xml version="1.0" encoding="utf-8"?>
<!-- Generator: Adobe Illustrator 26.3.1, SVG Export Plug-In . SVG Version: 6.00 Build 0)  -->
<svg version="1.1"
	 id="Layer_1" xmlns:rdf="http://www.w3.org/1999/02/22-rdf-syntax-ns#" xmlns:svg="http://www.w3.org/2000/svg" xmlns:inkscape="http://www.inkscape.org/namespaces/inkscape" xmlns:sodipodi="http://sodipodi.sourceforge.net/DTD/sodipodi-0.dtd" xmlns:dc="http://purl.org/dc/elements/1.1/" xmlns:cc="http://creativecommons.org/ns#" inkscape:version="0.91 r13725"
	 xmlns="http://www.w3.org/2000/svg" xmlns:xlink="http://www.w3.org/1999/xlink" x="0px" y="0px" viewBox="0 0 60 40"
	 style="enable-background:new 0 0 60 40;" xml:space="preserve">
<style type="text/css">
	.st0{fill:#00579F;}
	.st1{fill:#FAA61A;}
	.st2{fill-rule:evenodd;clip-rule:evenodd;fill:#8B3392;}
	.st3{fill-rule:evenodd;clip-rule:evenodd;fill:#FFFFFF;}
	.st4{fill:#FFFFFF;}
	.st5{fill:#D91E39;}
	.st6{fill:#E6175B;}
	.st7{fill:#951B21;}
	.st8{fill:#EC107F;}
	.st9{fill:#F05B22;}
	.st10{fill:#E91D25;}
	.st11{fill:#F59D1E;}
</style>
<sodipodi:namedview  bordercolor="#666666" borderopacity="1" gridtolerance="10" guidetolerance="10" id="namedview19" inkscape:current-layer="Layer_1" inkscape:cx="34.690897" inkscape:cy="131.15483" inkscape:pageopacity="0" inkscape:pageshadow="2" inkscape:window-height="705" inkscape:window-maximized="1" inkscape:window-width="1366" inkscape:window-x="-8" inkscape:window-y="-8" inkscape:zoom="0.35355339" objecttolerance="10" pagecolor="#ffffff" showgrid="false">
	</sodipodi:namedview>
<g id="g4158" transform="matrix(4.4299631,0,0,4.4299631,-81.165783,-105.04783)">
	<polygon id="polygon9" class="st0" points="24.2,30.3 23.2,30.3 23.8,26.2 24.9,26.2 	"/>
	<path id="path11" inkscape:connector-curvature="0" class="st0" d="M28,26.3c-0.2-0.1-0.5-0.2-0.9-0.2c-1,0-1.8,0.6-1.8,1.3
		c0,0.6,0.5,0.9,0.9,1.1c0.4,0.2,0.5,0.3,0.5,0.5c0,0.3-0.3,0.4-0.6,0.4c-0.4,0-0.6-0.1-1-0.2L25,29.2l-0.1,0.9
		c0.2,0.1,0.7,0.2,1.2,0.2c1.1,0,1.8-0.5,1.8-1.4c0-0.5-0.3-0.8-0.9-1.1c-0.4-0.2-0.6-0.3-0.6-0.5c0-0.2,0.2-0.3,0.6-0.3
		c0.3,0,0.6,0.1,0.8,0.2l0.1,0L28,26.3C28,26.3,28,26.3,28,26.3z"/>
	<path id="path13" inkscape:connector-curvature="0" class="st0" d="M29.4,28.8c0.1-0.2,0.4-1.1,0.4-1.1c0,0,0.1-0.2,0.1-0.4
		l0.1,0.3c0,0,0.2,1,0.2,1.2C30.1,28.8,29.6,28.8,29.4,28.8L29.4,28.8z M30.7,26.2h-0.8c-0.3,0-0.4,0.1-0.5,0.3l-1.6,3.7h1.1
		c0,0,0.2-0.5,0.2-0.6c0.1,0,1.2,0,1.3,0c0,0.1,0.1,0.6,0.1,0.6h1L30.7,26.2L30.7,26.2L30.7,26.2z"/>
	<path id="path15" inkscape:connector-curvature="0" class="st0" d="M22.3,26.2l-1,2.8l-0.1-0.6c-0.2-0.6-0.8-1.4-1.5-1.7l0.9,3.5
		h1.1l1.6-4.1H22.3L22.3,26.2L22.3,26.2z"/>
	<path id="path17" inkscape:connector-curvature="0" class="st1" d="M20.3,26.2h-1.7l0,0.1c1.3,0.3,2.2,1.1,2.5,2.1l-0.4-1.9
		C20.7,26.3,20.6,26.2,20.3,26.2L20.3,26.2z"/>
</g>
<g>
	<rect x="228.9" y="-33.7" class="st2" width="66.3" height="44.4"/>
	<polygon class="st3" points="275.1,-26.4 267.2,-18.6 267.8,-14.2 269.2,-17.2 273.7,-11.5 280,-30.8 259.1,-22.1 264.7,-19.1 	"/>
	<g>
		<path class="st4" d="M268.3-12.6c0,0-6.7,0-8.3,0c-6.3,1-7,10.1-0.1,11.4h8.4v-8.3c2.8,0.1,3.4,3.6,1.3,4.8
			c0.4,0.5,2.1,2.3,2.1,2.3C276-6.2,273.5-12.3,268.3-12.6z M265.2-4.3c0,0-4.3,0-4.6,0c-2.9,0.2-3.8-4.6-0.3-5.2c1,0,4.9,0,4.9,0
			V-4.3z"/>
	</g>
	<path class="st3" d="M285.6-8.5c-1.4,0-3,0-3,0l-1.3,3c0,0,3.5,0,3.9,0c0.8,0,0.8,1.1,0,1.2c-1,0-6.7,0-6.7,0v-5.2h10.3v-3.1
		c0,0-1.4,0-1.5,0c-0.4-6.4-8.1-6.6-10.1-3.1c0.4,0.3,2.3,2,2.3,2c1.2-1.8,4.4-1.7,4.8,1.1h-8.8v11.4h9.9c2.2,0,3.3-1.7,3.5-3.1
		C288.9-6.6,287.5-8.1,285.6-8.5z"/>
	<path class="st3" d="M256-12.6h-4c-1.3,1.6-3.5,7.8,0.9,12.6c0,0,1.9-1.6,2.3-1.9C253.9-3.3,251.6-8.7,256-12.6z"/>
	<path class="st3" d="M245.9,0c0,1.4-1.1,2.5-2.5,2.5c-1.4,0-2.5-1.1-2.5-2.5c0-1.4,1.1-2.5,2.5-2.5C244.7-2.5,245.9-1.3,245.9,0z"
		/>
	<g>
		<g>
			<path class="st3" d="M240.5-12.6c-6.3,1-7,10.1-0.1,11.4h0c0.5-1.1,1.6-1.8,2.9-1.8s2.4,0.8,2.9,1.8h2.6c0-0.4,0-11.4,0-11.4
				S242.1-12.6,240.5-12.6z M245.8-4.3c0,0-4.3,0-4.6,0c-2.9,0.2-3.8-4.6-0.3-5.2c1,0,4.9,0,4.9,0V-4.3z"/>
		</g>
	</g>
	<g>
		<g>
			<g>
				<path class="st3" d="M243.5-15.3c1-0.2,1.5-2.3-0.1-2.7c-0.2,0-2.7,0-2.7,0v4h1.1v-1.2l1.2,1.2h1.7L243.5-15.3z M243.4-16.7
					c0,0.1-0.1,0.3-0.3,0.3h-1.3V-17h1.3C243.2-17,243.4-16.9,243.4-16.7L243.4-16.7z"/>
			</g>
		</g>
		<g>
			<g>
				<path class="st3" d="M246.6-18.1c-1.1,0-2,0.9-2,2c0,1.1,0.9,2,2,2c1.1,0,2-0.9,2-2C248.7-17.2,247.8-18.1,246.6-18.1z
					 M246.6-15.2c-0.5,0-0.9-0.4-0.9-0.9c0-0.5,0.4-0.9,0.9-0.9s0.9,0.4,0.9,0.9C247.5-15.6,247.1-15.2,246.6-15.2z"/>
			</g>
		</g>
		<path class="st3" d="M258.1-17h1.8v-1.2h-1.5c-1.2,0-2.2,0.9-2.2,2c0,1.1,1,2,2.2,2h1.5v-1.2h-1.8c-0.3,0-0.5-0.1-0.7-0.3h2.5
			v-1.1h-2.5C257.6-16.8,257.8-17,258.1-17z"/>
		<g>
			<path class="st3" d="M250.9-15.3c-0.5,0-0.8-0.4-0.8-0.8v0c0-0.5,0.4-0.8,0.8-0.8h1.7v-1.2h-1.5c-1.2,0-2.2,0.9-2.2,2
				c0,1.1,1,2,2.2,2h1.5v-1.2H250.9z"/>
		</g>
		<polygon class="st3" points="264.1,-18.1 260.2,-18.1 260.2,-17 261.6,-17 261.6,-14.2 262.6,-14.2 262.6,-17 264.1,-17 		"/>
		<polygon class="st4" points="254.8,-16.1 256.7,-18.1 255.2,-18.1 254.1,-17 254.1,-18.1 253,-18.1 253,-14.2 254.1,-14.2 
			254.1,-15.3 255.2,-14.2 256.7,-14.2 		"/>
	</g>
	<g>
		<path class="st4" d="M270.5,0.7c-0.2,0-0.3,0.1-0.5,0.3c-0.1,0.2-0.2,0.3-0.2,0.5c0,0.1,0,0.2,0.1,0.3C270,2,270,2,270.1,2
			c0,0,0.1,0,0.2-0.1l0.1,0.3c-0.1,0.1-0.2,0.1-0.3,0.1c-0.1,0-0.2,0-0.4-0.1c-0.1-0.1-0.1-0.2-0.2-0.3c0-0.1,0-0.2,0-0.3V1.4
			c0-0.2,0.1-0.5,0.4-0.8c0.1-0.1,0.1-0.1,0.3-0.3h0.4v0.3C270.5,0.7,270.5,0.7,270.5,0.7z"/>
		<path class="st4" d="M272.2,0.7v1.6h-0.3V2.1c0-0.1-0.1-0.2-0.2-0.3c-0.1-0.1-0.2-0.2-0.3-0.2c-0.1-0.1-0.2-0.1-0.3-0.1
			c-0.1,0-0.2,0.1-0.3,0.2c0,0,0,0,0,0c0,0,0,0.1,0.1,0.1c0,0,0.1,0.1,0.1,0.1c0,0,0.1,0,0.2-0.1l0.1,0.3c-0.1,0.1-0.3,0.1-0.4,0.1
			c-0.1,0-0.2,0-0.3-0.1c-0.1-0.1-0.2-0.1-0.2-0.2c0,0,0-0.1,0-0.2c0-0.2,0.1-0.3,0.2-0.4c0.1-0.1,0.2-0.1,0.3-0.1c0,0,0,0,0,0
			c0-0.1,0-0.1-0.1-0.2c-0.1-0.1-0.1-0.1-0.2-0.1h-0.4V0.7h-0.1V0.4h2.1v0.3H272.2z M271.9,0.7h-0.8c0.2,0.1,0.3,0.3,0.3,0.6
			c0.1,0.1,0.3,0.2,0.4,0.3V0.7z"/>
		<path class="st4" d="M272.9,0.7v1.6h-0.3V0.7h-0.2V0.4h0.8v0.3H272.9z"/>
		<path class="st4" d="M274.4,0.7H273V0.4h2v0.3h-0.2v1.6h-0.3c0-0.1-0.2-0.2-0.4-0.4c-0.1-0.1-0.2-0.1-0.4-0.2
			c-0.2-0.1-0.4-0.1-0.5-0.1l-0.1-0.3c0.1-0.1,0.3-0.2,0.6-0.3C273.9,0.9,274.1,0.8,274.4,0.7z M274.5,1c-0.1,0-0.1,0-0.2,0.1
			c-0.1,0-0.3,0.1-0.6,0.2l-0.1,0c0.3,0.1,0.5,0.2,0.7,0.4c0,0,0.1,0,0.1,0.1V1z"/>
		<path class="st4" d="M275.4,0.7v1.6h-0.3V0.7h-0.2V0.4h0.8v0.3H275.4z"/>
		<path class="st4" d="M275.5,0.7V0.4h1c0,0,0,0,0,0c0-0.2-0.1-0.2-0.2-0.3c0,0,0,0-0.1,0c0,0-0.1,0-0.1,0c-0.1,0-0.1,0-0.1,0
			c-0.1,0-0.1,0-0.1,0.1c-0.1,0-0.1,0.1-0.2,0.1L275.5,0c0.1-0.1,0.3-0.2,0.5-0.2c0.1,0,0.2,0,0.2,0c0.1,0,0.2,0,0.3,0.1
			c0.2,0.1,0.3,0.3,0.3,0.5h0.2v0.3H275.5z M276.7,2.6c-0.1-0.1-0.3-0.2-0.4-0.3c-0.1,0-0.2-0.1-0.4-0.2c-0.1,0-0.2-0.1-0.2-0.1
			l0-0.4c0,0,0.1,0,0.1,0c0.1,0,0.1,0,0.1,0c0.1,0,0.3,0,0.4-0.1c0.2-0.1,0.3-0.2,0.3-0.3c0-0.1,0-0.1-0.1-0.2
			c-0.1,0-0.1-0.1-0.2-0.1c0,0,0,0-0.1,0c0,0-0.1,0-0.1,0c-0.1,0-0.1,0.1-0.1,0.1c0,0.1,0.1,0.1,0.3,0.1l-0.2,0.3
			c-0.1,0-0.1,0-0.2-0.1c-0.1-0.1-0.2-0.2-0.2-0.3c0-0.1,0.1-0.2,0.2-0.3c0.1-0.1,0.2-0.1,0.4-0.1c0.1,0,0.1,0,0.2,0
			c0,0,0.1,0,0.1,0.1c0.2,0.1,0.3,0.3,0.3,0.5c0,0.2-0.1,0.3-0.2,0.4c-0.1,0.1-0.3,0.1-0.4,0.2c0.1,0,0.1,0.1,0.3,0.1
			c0.2,0.1,0.3,0.3,0.4,0.4L276.7,2.6z"/>
		<path class="st4" d="M279,0.7v1.6h-0.3V1.7c0-0.1,0-0.1-0.1-0.2c0-0.1-0.1-0.1-0.2-0.1c-0.1,0-0.1,0-0.1,0.1
			c0,0.1-0.1,0.1-0.1,0.2h-0.4c0-0.1,0-0.2-0.1-0.2c0-0.1-0.1-0.1-0.2-0.1c-0.1,0-0.1,0-0.1,0.1c0,0-0.1,0.1-0.1,0.1l0,0.1v0
			c0,0.2,0.1,0.3,0.3,0.3c0,0,0.1,0,0.2,0l-0.1,0.3c-0.1,0-0.1,0-0.1,0c-0.2,0-0.3-0.1-0.4-0.2c-0.1,0-0.1-0.1-0.1-0.2
			c0-0.1,0-0.2,0-0.2c0-0.2,0.1-0.3,0.2-0.4c0.1-0.1,0.3-0.2,0.4-0.2c0.2,0,0.3,0.1,0.4,0.2c0.1-0.2,0.3-0.2,0.4-0.2
			c0.1,0,0.2,0,0.2,0.1V0.7h-1.8V0.4h2.3v0.3H279z"/>
		<path class="st4" d="M281.4,0.7H280V0.4h2v0.3h-0.2v1.6h-0.3c0-0.1-0.2-0.2-0.4-0.4c-0.1-0.1-0.2-0.1-0.4-0.2
			c-0.2-0.1-0.4-0.1-0.5-0.1l-0.1-0.3c0.1-0.1,0.3-0.2,0.6-0.3C280.9,0.9,281.1,0.8,281.4,0.7z M281.5,1c-0.1,0-0.1,0-0.2,0.1
			c-0.1,0-0.3,0.1-0.6,0.2l-0.1,0c0.3,0.1,0.5,0.2,0.7,0.4c0,0,0.1,0,0.1,0.1V1z"/>
		<path class="st4" d="M282.6,0.7c-0.1,0.1-0.2,0.3-0.2,0.4c0,0,0.1,0.2,0.2,0.5c0.1,0.2,0.1,0.3,0.1,0.4c0,0.2-0.1,0.3-0.3,0.4
			c-0.1,0-0.2,0-0.3,0.1l0-0.3c0.2,0,0.3-0.1,0.3-0.2c0-0.1,0-0.2-0.1-0.4c-0.1-0.2-0.1-0.3-0.1-0.4c0-0.1,0-0.2,0.1-0.4h-0.3V0.4
			h0.9v0.3H282.6z"/>
		<path class="st4" d="M283.3,0.7v1.6h-0.3V0.7h-0.2V0.4h0.8v0.3H283.3z"/>
		<path class="st4" d="M284,1.5c-0.2,0-0.3,0-0.4-0.1c-0.1-0.1-0.1-0.2-0.1-0.4c0-0.1,0-0.3,0.1-0.4c0.1-0.1,0.2-0.1,0.4-0.1
			c0.2,0,0.3,0.1,0.4,0.3c0,0.1,0.1,0.2,0.1,0.2c0,0.1,0,0.3-0.1,0.4C284.3,1.4,284.2,1.5,284,1.5z M284.4,2.5
			c-0.4-0.3-0.7-0.6-0.8-0.6l0-0.5c0.6,0.4,0.9,0.7,1.1,1v0.3L284.4,2.5z M284.1,0.8C284,0.8,284,0.8,284.1,0.8
			c-0.2,0-0.3,0.1-0.3,0.2c0,0.1,0,0.1,0.1,0.1c0,0,0.1,0.1,0.1,0.1l0,0c0.1,0,0.1-0.1,0.1-0.2C284.2,0.9,284.1,0.8,284.1,0.8z"/>
		<path class="st4" d="M286.7,0.2c-0.4-0.2-0.7-0.4-0.9-0.4c-0.3,0-0.5,0.1-0.6,0.3c0,0.1-0.1,0.2-0.1,0.3h0.2v0.3h-0.2v1.6h-0.3
			V0.7h-0.2V0.4h0.2c0-0.2,0.1-0.4,0.2-0.6c0.1-0.1,0.3-0.2,0.6-0.3c0,0,0.1,0,0.1,0h0.1c0.2,0,0.4,0,0.6,0.1c0.1,0,0.3,0.1,0.5,0.3
			L286.7,0.2z"/>
		<path class="st4" d="M286.4,0.7L286.4,0.7c0.1,0,0.3,0.1,0.4,0.1c0.2,0.1,0.3,0.3,0.3,0.5c0,0.1,0,0.2-0.1,0.3
			c-0.1,0.1-0.2,0.1-0.3,0.2c-0.1,0-0.2,0-0.3,0V1.4c0,0,0.1,0,0.1,0c0.2,0,0.2-0.1,0.2-0.2c0-0.1-0.1-0.2-0.4-0.3v1.3h-0.3
			c0-0.1-0.1-0.2-0.1-0.2c0,0-0.1-0.1-0.1-0.2c0,0-0.1-0.1-0.1-0.1c-0.1,0-0.1-0.1-0.1-0.1c0,0,0,0-0.1,0c-0.1,0-0.3-0.1-0.3-0.1
			l-0.1-0.3c0.1-0.1,0.2-0.1,0.5-0.3c0,0,0.1-0.1,0.2-0.1c0,0,0.1-0.1,0.2-0.1v0h-1V0.4h2.3v0.3H286.4z M286.1,1.1
			c-0.1,0-0.1,0.1-0.2,0.2c0,0-0.1,0-0.1,0.1c0,0-0.1,0.1-0.1,0.1c0,0,0.1,0.1,0.2,0.1c0.1,0.1,0.2,0.2,0.3,0.3V1.1z"/>
		<path class="st4" d="M287.8,1.5c-0.2,0-0.3,0-0.4-0.1c-0.1-0.1-0.1-0.2-0.1-0.4c0-0.1,0-0.3,0.1-0.4c0.1-0.1,0.2-0.1,0.4-0.1
			c0.2,0,0.3,0.1,0.4,0.3c0,0.1,0.1,0.2,0.1,0.2c0,0.1,0,0.3-0.1,0.4C288.1,1.4,288,1.5,287.8,1.5z M288.2,2.5
			c-0.4-0.3-0.7-0.6-0.8-0.6l0-0.5c0.6,0.4,0.9,0.7,1.1,1v0.3L288.2,2.5z M287.9,0.8C287.8,0.8,287.8,0.8,287.9,0.8
			c-0.2,0-0.3,0.1-0.3,0.2c0,0.1,0,0.1,0.1,0.1c0,0,0.1,0.1,0.1,0.1l0,0c0.1,0,0.1-0.1,0.1-0.2C288,0.9,287.9,0.8,287.9,0.8z"/>
	</g>
	<g>
		<polygon class="st4" points="251.6,2.5 252.2,2.7 252.4,2.5 251.8,2.2 		"/>
		<g>
			<path class="st4" d="M251.8,0.8V0.4H247v0.4h0.8v0.8c0,0,0.6,0,0.7,0c0,0,0.2-0.1,0.2-0.2c0,0.1,0,0.3,0,0.3
				c0,0.1-0.1,0.3-0.2,0.3c-0.1,0-1,0-1,0c-0.1,0-0.1,0-0.1-0.3c0-0.2,0-0.8,0-0.8H247c0,0,0,0.9,0,1c0,0.1,0.1,0.4,0.3,0.4
				c0.3,0,1.3,0,1.4,0c0.2,0,0.4-0.2,0.4-0.4c0-0.4,0-0.9,0-0.9h-0.3c0,0.1,0,0.2-0.2,0.3c-0.1,0-0.4,0-0.4,0V0.8h1.2v1.6h0.4V0.8
				h0.3v1.6c0,0,1.2,0,1.3,0c0.1,0,0.4-0.1,0.4-0.4c0-0.3,0-0.9,0-0.9h-0.3c0,0.1,0,0.2-0.2,0.2c-0.1,0-0.9,0-0.9,0V0.8H251.8z
				 M251.2,1.5c0.1,0,0.1-0.1,0.2-0.2c0,0.1,0,0.2,0,0.4c0,0.1-0.1,0.3-0.2,0.3c-0.1,0-0.9,0-0.9,0V1.5
				C250.4,1.5,251.2,1.5,251.2,1.5z"/>
		</g>
		<rect x="252.2" y="1.2" class="st4" width="0.8" height="0.4"/>
		<g>
			<path class="st4" d="M253.5,0.4v0.4h1.3V1h-1.3c0,0,0,0.8,0,0.9c0,0.3,0.2,0.5,0.5,0.5c0.3,0,1.2,0,1.2,0V0.8h0.3v1.6h0.4V0.4
				H253.5z M254.8,2.1c0,0-0.8,0-0.8,0c-0.1,0-0.2-0.2-0.2-0.3c0-0.2,0-0.4,0-0.4h1V2.1z"/>
		</g>
		<path class="st4" d="M257.6,0.8h1.7V1c-0.1,0-0.4,0-0.5,0c0,0.2-0.3,0.2-0.3,0c-0.3,0-0.8,0-0.8,0s0,0.8,0,0.9
			c0,0.1,0,0.4,0.3,0.4c0.2,0,0.7,0,0.7,0V2c0,0-0.4,0-0.4,0c-0.1,0-0.2-0.1-0.2-0.2c0-0.2,0-0.5,0-0.5h0.4v0.3h0.4V1.4
			c0-0.1,0.4-0.1,0.4,0c0,0.1,0,1,0,1h0.4V0.8h0.2v1.6h0.4V0.4h-2.6V0.8z"/>
		<g>
			<g>
				<path class="st4" d="M257,0.5c-0.1,0-0.9,0-0.9,0s0,0.4,0,0.5c0,0.2,0.1,0.4,0.4,0.4c0.3,0,0.7,0,0.7,0V0.8
					C257.2,0.7,257.1,0.5,257,0.5z M256.7,1c-0.2,0-0.3-0.1-0.3-0.1c0-0.1,0.1-0.1,0.3-0.1c0.2,0,0.3,0.1,0.3,0.1
					C257,1,256.9,1,256.7,1z"/>
			</g>
		</g>
		<polygon class="st4" points="256.2,1.6 256.2,1.9 257.2,2.3 257.2,2 		"/>
		<g>
			<g>
				<path class="st4" d="M265.8,0.5c-0.1,0-0.9,0-0.9,0s0,0.4,0,0.5c0,0.2,0.1,0.4,0.4,0.4c0.3,0,0.7,0,0.7,0V0.8
					C266,0.7,265.9,0.5,265.8,0.5z M265.5,1c-0.2,0-0.3-0.1-0.3-0.1c0-0.1,0.1-0.1,0.3-0.1c0.2,0,0.3,0.1,0.3,0.1
					C265.8,1,265.6,1,265.5,1z"/>
			</g>
		</g>
		<polygon class="st4" points="264.9,1.6 264.9,1.9 266,2.3 266,2 		"/>
		<path class="st4" d="M268,1V0.8h0.7V0.4h-2.3v0.4h1.3V1h-1.3c0,0,0,0.8,0,0.9c0,0.3,0.2,0.5,0.5,0.5c0.3,0,1.2,0,1.2,0v-1h0.3
			c0.1,0,0.1,0,0.1,0.1c0,0.1,0,0.2,0,0.2c0,0.1,0,0.1-0.1,0.2c-0.1,0-0.1,0-0.1,0v0.3h0.2c0.1,0,0.2-0.1,0.2-0.2c0-0.2,0-0.9,0-0.9
			H268z M267.6,2.1c0,0-0.8,0-0.8,0c-0.1,0-0.2-0.2-0.2-0.3c0-0.2,0-0.4,0-0.4h1l0,0.1h0V2.1z"/>
		<g>
			<path class="st4" d="M261.3,0.4v0.4h1.3V1h-1.3c0,0,0,0.8,0,0.9c0,0.3,0.2,0.5,0.5,0.5c0.3,0,1.2,0,1.2,0V0.8h0.4l-0.2,0.3v0.2
				c0,0,0.2,0,0.3,0c0.2,0,0.2,0.1,0.2,0.4c0,0.2,0,0.3-0.2,0.3c-0.1,0-0.3,0-0.3,0v0.3c0,0,0.2,0,0.3,0c0.1,0,0.5,0,0.5-0.3
				c0-0.7,0.1-0.9-0.4-1l0.1-0.3h0.6v1.6h0.4V0.4H261.3z M262.6,2.1c0,0-0.8,0-0.8,0c-0.1,0-0.2-0.2-0.2-0.3c0-0.2,0-0.4,0-0.4h1
				V2.1z"/>
		</g>
	</g>
</g>
<path class="st5" d="M275.2,105l-21-27l0.1-0.2l27.5,3.3C279.6,89.1,277.4,97,275.2,105z"/>
<path class="st6" d="M276.3,105.2c2.2-8,4.4-15.9,6.6-24c6.8,9.5,13.4,18.7,20.1,28c0,0.1-0.1,0.1-0.1,0.2L276.3,105.2z"/>
<path class="st5" d="M276.3,106.4l25.4,4.1l0,0.3l-22,11C278.7,116.6,277.5,111.6,276.3,106.4z"/>
<path class="st7" d="M266.8,135.5c2.7-9.6,5.5-19.3,8.3-29.1c0.1,0.2,0.2,0.4,0.3,0.7c1.3,5.9,2.6,11.8,3.9,17.7
	c0.1,0.6,0,0.9-0.5,1.3c-3.8,3-7.5,6.1-11.3,9.2c-0.2,0.1-0.4,0.3-0.6,0.4L266.8,135.5z"/>
<path class="st5" d="M296.1,98l13.2-2.4c-1.7,4.6-3.3,9.1-5,13.7L296.1,98z"/>
<path class="st6" d="M283.3,121.2l19.7-10l0.2,0.1c-0.2,0.8-0.5,1.5-0.8,2.2c-0.1,0.2-0.3,0.3-0.5,0.4c-6.1,2.5-12.3,4.9-18.4,7.4
	c-0.1,0-0.1,0-0.2,0L283.3,121.2z"/>
<path class="st6" d="M315.6,101.4h-7.3l2-5.3l5.4,5.1C315.6,101.2,315.6,101.3,315.6,101.4z"/>
<path class="st7" d="M264.5,93.4l-11.2-10.6c0-0.1,0.1-0.1,0.1-0.2c0.9,0,1.9,0,2.8,0c0.1,0,0.3,0.2,0.4,0.3
	c2.6,3.4,5.3,6.7,7.9,10.1c0.1,0.1,0.1,0.2,0.1,0.3L264.5,93.4z"/>
<path class="st8" d="M203.8,114.8c0.1-0.8,0.1-2,0.1-3.1V97h2.2v7.6h0.1c0.8-1.4,2.2-2.2,4.1-2.2c3,0,5.1,2.5,5.1,6.2
	c0,4.3-2.7,6.5-5.4,6.5c-1.8,0-3.2-0.7-4.1-2.3h-0.1l-0.1,2H203.8z M206.1,109.9c0,0.3,0,0.5,0.1,0.8c0.4,1.5,1.7,2.6,3.3,2.6
	c2.3,0,3.7-1.9,3.7-4.7c0-2.4-1.3-4.5-3.6-4.5c-1.5,0-2.9,1-3.3,2.7c-0.1,0.3-0.1,0.6-0.1,0.9V109.9z"/>
<path d="M218.2,97.9h2.2v8.1h0.1c0.4-0.6,0.9-1.3,1.3-1.8l5.1-6.3h2.7l-6.1,7.1l6.6,9.7h-2.6l-5.5-8.3l-1.6,1.8v6.4h-2.2V97.9z"/>
<path d="M238.8,114.8l-0.2-1.5h-0.1c-0.9,1.2-2.2,1.8-3.7,1.8c-2.5,0-3.7-1.7-3.7-3.5c0-2.9,2.6-4.5,7.3-4.5v-0.3
	c0-1-0.3-2.8-2.7-2.8c-1.1,0-2.2,0.3-3.2,0.9l-0.5-1.5c1-0.7,2.5-1.1,4-1.1c3.7,0,4.6,2.5,4.6,4.9v4.5c0,1,0.1,1.9,0.2,2.9H238.8z
	 M238.5,108.6c-2.4-0.1-5.1,0.4-5.1,2.7c0,1.4,1,2.1,2.1,2.1c1.3,0,2.5-0.8,2.9-2c0.1-0.2,0.1-0.5,0.1-0.7L238.5,108.6z"/>
<path d="M243.8,112.5c0.9,0.5,1.9,0.8,2.9,0.9c1.6,0,2.3-0.8,2.3-1.8c0-1.1-0.6-1.6-2.2-2.2c-2.2-0.8-3.2-2-3.2-3.4
	c0-1.9,1.6-3.5,4.2-3.5c1,0,2.1,0.2,3,0.7l-0.5,1.6c-0.7-0.5-1.6-0.7-2.5-0.7c-1.3,0-2,0.7-2,1.6c0,1,0.7,1.5,2.3,2
	c2.1,0.8,3.2,1.8,3.2,3.6c0,2.1-1.6,3.6-4.5,3.6c-1.3,0-2.5-0.3-3.4-0.8L243.8,112.5z"/>
<path d="M254,97h2.2v7.5h0.1c0.4-0.7,0.9-1.2,1.6-1.6c0.7-0.4,1.5-0.6,2.2-0.6c1.6,0,4.2,1,4.2,5.2v7.2h-2.2v-6.9
	c0-1.9-0.7-3.6-2.8-3.6c-1.4,0-2.5,1-3,2.2c-0.1,0.3-0.2,0.7-0.1,1.1v7.3H254V97z"/>
<path id="XMLID_1775_" inkscape:connector-curvature="0" d="M220.4,310.5v-9c0-3.5-2.1-5.7-5.7-5.7c-1.8,0-3.8,0.6-5.1,2.6
	c-1.1-1.6-2.6-2.6-4.8-2.6c-1.5,0-3,0.5-4.2,2.1V296h-3.2v14.4h3.2v-8c0-2.6,1.4-3.8,3.5-3.8s3.2,1.4,3.2,3.8v8h3.2v-8
	c0-2.6,1.5-3.8,3.5-3.8c2.1,0,3.2,1.4,3.2,3.8v8H220.4L220.4,310.5z M267.2,296h-5.1v-4.4H259v4.4h-2.9v2.9h2.9v6.6
	c0,3.3,1.4,5.3,5,5.3c1.4,0,2.9-0.5,3.9-1.1l-0.9-2.7c-0.9,0.6-2,0.8-2.7,0.8c-1.5,0-2.1-0.9-2.1-2.4v-6.5h5.1L267.2,296L267.2,296z
	 M294,295.7c-1.8,0-3,0.9-3.8,2.1V296h-3.2v14.4h3.2v-8.1c0-2.4,1.1-3.8,3-3.8c0.6,0,1.4,0.2,2,0.3l0.9-3
	C295.5,295.7,294.6,295.7,294,295.7L294,295.7z M253.5,297.2c-1.5-1.1-3.6-1.5-5.9-1.5c-3.6,0-6,1.8-6,4.7c0,2.4,1.8,3.8,5,4.2
	l1.5,0.2c1.6,0.3,2.6,0.8,2.6,1.5c0,1.1-1.2,1.8-3.3,1.8c-2.1,0-3.8-0.8-4.8-1.5l-1.5,2.4c1.6,1.2,3.9,1.8,6.2,1.8
	c4.2,0,6.6-2,6.6-4.7c0-2.6-2-3.9-5-4.4l-1.5-0.2c-1.4-0.2-2.4-0.5-2.4-1.4c0-1.1,1.1-1.6,2.7-1.6c1.8,0,3.6,0.8,4.5,1.2
	L253.5,297.2L253.5,297.2z M337.5,295.7c-1.8,0-3,0.9-3.8,2.1V296h-3.2v14.4h3.2v-8.1c0-2.4,1.1-3.8,3-3.8c0.6,0,1.4,0.2,2,0.3
	l0.9-3C339,295.7,338.1,295.7,337.5,295.7L337.5,295.7z M297.2,303.2c0,4.4,3,7.5,7.7,7.5c2.1,0,3.6-0.5,5.1-1.6l-1.5-2.6
	c-1.2,0.9-2.4,1.4-3.8,1.4c-2.6,0-4.4-1.8-4.4-4.7c0-2.7,1.8-4.5,4.4-4.7c1.4,0,2.6,0.5,3.8,1.4l1.5-2.6c-1.5-1.2-3-1.6-5.1-1.6
	C300.2,295.7,297.2,298.9,297.2,303.2L297.2,303.2L297.2,303.2z M326.4,303.2V296h-3.2v1.8c-1.1-1.4-2.6-2.1-4.5-2.1
	c-4.1,0-7.2,3.2-7.2,7.5s3.2,7.5,7.2,7.5c2.1,0,3.6-0.8,4.5-2.1v1.8h3.2V303.2L326.4,303.2z M314.8,303.2c0-2.6,1.6-4.7,4.4-4.7
	c2.6,0,4.4,2,4.4,4.7c0,2.6-1.8,4.7-4.4,4.7C316.5,307.8,314.8,305.8,314.8,303.2L314.8,303.2z M277,295.7c-4.2,0-7.2,3-7.2,7.5
	c0,4.5,3,7.5,7.4,7.5c2.1,0,4.2-0.6,5.9-2l-1.5-2.3c-1.2,0.9-2.7,1.5-4.2,1.5c-2,0-3.9-0.9-4.4-3.5h10.7c0-0.5,0-0.8,0-1.2
	C283.8,298.7,281.1,295.7,277,295.7L277,295.7L277,295.7z M277,298.4c2,0,3.3,1.2,3.6,3.5h-7.5C273.4,299.9,274.8,298.4,277,298.4
	L277,298.4z M355.4,303.2v-12.9h-3.2v7.5c-1.1-1.4-2.6-2.1-4.5-2.1c-4.1,0-7.2,3.2-7.2,7.5c0,4.4,3.2,7.5,7.2,7.5
	c2.1,0,3.6-0.8,4.5-2.1v1.8h3.2V303.2L355.4,303.2z M343.8,303.2c0-2.6,1.6-4.7,4.4-4.7c2.6,0,4.4,2,4.4,4.7c0,2.6-1.8,4.7-4.4,4.7
	C345.5,307.8,343.8,305.8,343.8,303.2L343.8,303.2z M238.2,303.2V296H235v1.8c-1.1-1.4-2.6-2.1-4.5-2.1c-4.1,0-7.2,3.2-7.2,7.5
	s3.2,7.5,7.2,7.5c2.1,0,3.6-0.8,4.5-2.1v1.8h3.2V303.2L238.2,303.2z M226.5,303.2c0-2.6,1.6-4.7,4.4-4.7c2.6,0,4.4,2,4.4,4.7
	c0,2.6-1.8,4.7-4.4,4.7C228.1,307.8,226.5,305.8,226.5,303.2z"/>
<g>
	<rect id="rect19" x="252.5" y="186.3" class="st9" width="47.4" height="85.2"/>
	<path id="XMLID_330_" inkscape:connector-curvature="0" class="st10" d="M255.7,228.9c0-17.3,8.1-32.7,20.6-42.6
		c-9.2-7.2-20.8-11.6-33.4-11.6c-29.9,0-54.2,24.2-54.2,54.2s24.2,54.2,54.2,54.2c12.6,0,24.2-4.4,33.4-11.6
		C263.8,261.7,255.7,246.2,255.7,228.9z"/>
	<path id="path22" inkscape:connector-curvature="0" class="st11" d="M363.9,228.9c0,29.9-24.2,54.2-54.2,54.2
		c-12.6,0-24.2-4.4-33.4-11.6c12.6-9.9,20.6-25.3,20.6-42.6s-8.1-32.7-20.6-42.6c9.2-7.2,20.8-11.6,33.4-11.6
		C339.6,174.7,363.9,199.1,363.9,228.9z"/>
</g>
</svg>
